G04 MADE WITH FRITZING*
G04 WWW.FRITZING.ORG*
G04 DOUBLE SIDED*
G04 HOLES PLATED*
G04 CONTOUR ON CENTER OF CONTOUR VECTOR*
%ASAXBY*%
%FSLAX23Y23*%
%MOIN*%
%OFA0B0*%
%SFA1.0B1.0*%
%ADD10C,0.089370*%
%ADD11C,0.109055*%
%ADD12C,0.049370*%
%ADD13C,0.147795*%
%ADD14C,0.063000*%
%ADD15C,0.090000*%
%ADD16C,0.128740*%
%ADD17C,0.092000*%
%ADD18C,0.088000*%
%ADD19C,0.095827*%
%ADD20C,0.084000*%
%ADD21C,0.138000*%
%ADD22R,0.109055X0.109055*%
%ADD23R,0.090000X0.090000*%
%ADD24R,0.092000X0.092000*%
%LNMASK1*%
G90*
G70*
G54D10*
X834Y2490D03*
X834Y2390D03*
X834Y2290D03*
X834Y2190D03*
X834Y1150D03*
X834Y1050D03*
X834Y950D03*
X834Y850D03*
G54D11*
X484Y1050D03*
X484Y1250D03*
X484Y1450D03*
X484Y1650D03*
X484Y2170D03*
X484Y2370D03*
X484Y2570D03*
X484Y2770D03*
G54D12*
X2475Y2611D03*
X3263Y1270D03*
X1883Y1210D03*
X1883Y1089D03*
X1945Y389D03*
X1904Y680D03*
X2025Y279D03*
X1904Y309D03*
X2245Y1499D03*
X1924Y1460D03*
X2004Y1210D03*
X1895Y1499D03*
X2094Y1540D03*
X3255Y2829D03*
X1603Y1250D03*
G54D13*
X1064Y2550D03*
X3384Y2550D03*
X1064Y621D03*
X3384Y621D03*
G54D12*
X2624Y2790D03*
X1173Y1888D03*
X980Y1888D03*
X2521Y2475D03*
X3287Y2433D03*
X2470Y1680D03*
X2093Y1680D03*
X2245Y1580D03*
X1893Y1829D03*
X2020Y2054D03*
X2644Y454D03*
X2468Y330D03*
X2069Y454D03*
X2069Y230D03*
G54D14*
X2087Y1760D03*
X2187Y1760D03*
X2287Y1760D03*
X2387Y1760D03*
X2487Y1760D03*
X2587Y1760D03*
X2687Y1760D03*
X2787Y1760D03*
X2887Y1760D03*
X2987Y1760D03*
X3087Y1760D03*
X3187Y1760D03*
X3287Y1760D03*
X3387Y1760D03*
X3287Y1860D03*
X2087Y2360D03*
X2187Y2360D03*
X2287Y2360D03*
X2387Y2360D03*
X2487Y2360D03*
X2587Y2360D03*
X2687Y2360D03*
X2787Y2360D03*
X2887Y2360D03*
X2987Y2360D03*
X3087Y2360D03*
X3187Y2360D03*
X3287Y2360D03*
X3387Y2360D03*
X2987Y1860D03*
X3087Y1860D03*
X2887Y1860D03*
X2087Y2160D03*
X2087Y2260D03*
X2087Y2060D03*
X2087Y1860D03*
X2087Y1960D03*
X2098Y815D03*
X2198Y815D03*
X2298Y815D03*
X2398Y815D03*
X2498Y815D03*
X2598Y815D03*
X2698Y815D03*
X2798Y815D03*
X2898Y815D03*
X2998Y815D03*
X3098Y815D03*
X3198Y815D03*
X3298Y815D03*
X3398Y815D03*
X3298Y915D03*
X2098Y1415D03*
X2198Y1415D03*
X2298Y1415D03*
X2398Y1415D03*
X2498Y1415D03*
X2598Y1415D03*
X2698Y1415D03*
X2798Y1415D03*
X2898Y1415D03*
X2998Y1415D03*
X3098Y1415D03*
X3198Y1415D03*
X3298Y1415D03*
X3398Y1415D03*
X2998Y915D03*
X3098Y915D03*
X2898Y915D03*
X2098Y1215D03*
X2098Y1315D03*
X2098Y1115D03*
X2098Y915D03*
X2098Y1015D03*
G54D15*
X2574Y2680D03*
X2712Y2680D03*
G54D16*
X2884Y2700D03*
X3254Y2700D03*
G54D17*
X3254Y2700D03*
X2886Y2700D03*
G54D18*
X1724Y2790D03*
X1724Y2690D03*
X1724Y2590D03*
X1724Y2490D03*
X1724Y2390D03*
X1724Y2290D03*
X1724Y2190D03*
X1724Y2090D03*
X1724Y1990D03*
X1724Y1890D03*
X1724Y1790D03*
X1724Y1450D03*
X1724Y1350D03*
X1724Y1250D03*
X1724Y1150D03*
X1724Y1050D03*
X1724Y950D03*
X1724Y850D03*
X1724Y750D03*
X1724Y650D03*
X1724Y550D03*
X1724Y450D03*
X834Y1990D03*
X834Y1890D03*
X834Y650D03*
X834Y550D03*
X1724Y1690D03*
X1624Y1690D03*
X1724Y350D03*
X1624Y350D03*
G54D19*
X965Y1409D03*
X964Y2740D03*
X965Y409D03*
X964Y1740D03*
G54D11*
X2184Y2680D03*
X2322Y2680D03*
G54D20*
X504Y620D03*
X404Y570D03*
X504Y520D03*
X404Y470D03*
X504Y420D03*
X404Y370D03*
G54D21*
X154Y695D03*
X154Y295D03*
G54D20*
X504Y620D03*
X404Y570D03*
X504Y520D03*
X404Y470D03*
X504Y420D03*
X404Y370D03*
G54D21*
X154Y695D03*
X154Y295D03*
G54D15*
X1250Y100D03*
X1112Y100D03*
X974Y100D03*
X824Y100D03*
X686Y100D03*
G54D12*
X503Y160D03*
X503Y40D03*
X314Y570D03*
X1103Y190D03*
G54D22*
X484Y1050D03*
X484Y2170D03*
G54D23*
X2574Y2680D03*
G54D24*
X3255Y2700D03*
G54D22*
X2184Y2680D03*
G54D23*
X1250Y100D03*
X824Y100D03*
G04 End of Mask1*
M02*