; NON-PLATED HOLES START AT T1
; THROUGH (PLATED) HOLES START AT T100
M48
INCH
T1C0.128000
T2C0.137795
T3C0.085827
T4C0.053000
T100C0.078740
T101C0.059055
T102C0.039370
T103C0.040000
T104C0.015748
T105C0.042000
T106C0.038000
%
T1
X001539Y002949
X001539Y006949
T2
X033839Y006208
X033839Y025499
X010636Y025503
X010636Y006212
T3
X009651Y014086
X009651Y004086
X009639Y027398
X009639Y017398
T4
X025873Y023598
X031873Y017598
X033983Y008148
X030873Y023598
X032983Y009148
X027983Y008148
X030983Y014148
X021873Y017598
X026872Y023598
X033983Y014148
X030983Y008148
X020982Y012148
X022873Y017598
X028873Y023598
X027873Y017598
X020982Y010148
X022873Y023598
X026982Y014148
X020982Y011148
X032873Y017598
X033873Y023598
X029872Y017598
X024872Y017598
X020873Y017598
X028983Y014148
X020983Y009148
X025873Y017598
X020983Y008148
X025983Y014148
X020872Y019598
X023873Y023598
X023983Y014148
X033873Y017598
X027983Y014148
X030983Y009148
X032873Y018598
X032873Y023598
X031873Y023598
X026982Y008148
X023983Y008148
X022983Y014148
X031983Y014148
X025983Y008148
X028873Y017598
X029982Y008148
X029872Y023598
X029982Y009148
X032983Y008148
X030873Y017598
X031983Y008148
X020983Y014148
X021983Y008148
X032983Y014148
X024982Y014148
X028983Y008148
X020873Y018598
X021983Y014148
X020872Y021598
X028872Y018598
X020872Y020598
X030873Y018598
X022983Y008148
X023873Y017598
X020873Y022598
X026872Y017598
X021873Y023598
X020873Y023598
X029982Y014148
X024982Y008148
X029872Y018598
X027873Y023598
X024872Y023598
X020983Y013148
X028982Y009148
T100
X032539Y026999
X028839Y026999
T101
X004839Y027699
X004839Y016499
X004839Y014499
X021839Y026799
X004839Y010499
X004839Y023699
X023217Y026799
X004839Y025699
X004839Y021699
X004839Y012499
T102
X008339Y021899
X008339Y023899
X008339Y008499
X008339Y024899
X008339Y022899
X008339Y009499
X008339Y010499
X008339Y011499
T103
X009739Y000999
X012495Y000999
X011117Y000999
X004039Y003699
X008239Y000999
X005039Y006199
X004039Y004699
X006861Y000999
X005039Y005199
X025739Y026799
X005039Y004199
X027117Y026799
X004039Y005699
T104
X024683Y003303
X026443Y004541
X018945Y014990
X020933Y016801
X022446Y014990
X026242Y027899
X025210Y024753
X024747Y026111
X022448Y015799
X020198Y020543
X032872Y024330
X011033Y001904
X018929Y018293
X020937Y015400
X016033Y012503
X005034Y001602
X032545Y028287
X009797Y018879
X003135Y005702
X032630Y012700
X005034Y000395
X019038Y003092
X018833Y012104
X020685Y004541
X019038Y006797
X011729Y018879
X020248Y002794
X018833Y010894
X024698Y016801
X019242Y014599
X019448Y003892
X020043Y012104
X020685Y002303
T105
X028863Y026998
X032539Y026998
T106
X008339Y019899
X008339Y006499
X017239Y008499
X008339Y005499
X017239Y009499
X017239Y021899
X017239Y025899
X017239Y020899
X017239Y016899
X017239Y017899
X017239Y027899
X016239Y003499
X017239Y007499
X017239Y004499
X017239Y019899
X016239Y016899
X017239Y018899
X017239Y023899
X017239Y003499
X008339Y018899
X017239Y005499
X017239Y012499
X017239Y024899
X017239Y011499
X017239Y013499
X017239Y022899
X017239Y010499
X017239Y014499
X017239Y006499
X017239Y026899
T00
M30
