G04 MADE WITH FRITZING*
G04 WWW.FRITZING.ORG*
G04 DOUBLE SIDED*
G04 HOLES PLATED*
G04 CONTOUR ON CENTER OF CONTOUR VECTOR*
%ASAXBY*%
%FSLAX23Y23*%
%MOIN*%
%OFA0B0*%
%SFA1.0B1.0*%
%ADD10C,0.080000*%
%ADD11C,0.078000*%
%ADD12C,0.039370*%
%ADD13C,0.082000*%
%ADD14C,0.075000*%
%ADD15C,0.085000*%
%ADD16C,0.074000*%
%ADD17R,0.080000X0.080000*%
%ADD18R,0.078000X0.078000*%
%ADD19R,0.082000X0.082000*%
%ADD20C,0.016000*%
%LNCOPPER1*%
G90*
G70*
G54D10*
X2632Y513D03*
X2632Y375D03*
G54D11*
X2649Y1065D03*
X1750Y1064D03*
X2649Y1165D03*
X1750Y1164D03*
X2650Y1264D03*
X1750Y1264D03*
X2650Y1364D03*
X1750Y1364D03*
X2650Y1464D03*
X1750Y1464D03*
X2650Y1564D03*
X1750Y1564D03*
X2650Y1664D03*
X1750Y1664D03*
X2650Y1764D03*
X1750Y1764D03*
X2650Y1864D03*
X1750Y1864D03*
X2650Y1964D03*
X1750Y1964D03*
X2650Y2064D03*
X1750Y2064D03*
X2650Y2164D03*
X1750Y2164D03*
X2650Y2264D03*
X1750Y2264D03*
X2650Y2364D03*
X2650Y2464D03*
X2650Y2564D03*
X1750Y2364D03*
X1750Y2464D03*
X1750Y2564D03*
X1667Y336D03*
X1667Y236D03*
X1667Y136D03*
X1982Y336D03*
X1982Y236D03*
X1982Y136D03*
X2297Y336D03*
X2297Y236D03*
X2297Y136D03*
G54D12*
X860Y2246D03*
X998Y2246D03*
X1135Y1989D03*
X1627Y1989D03*
X1510Y2029D03*
X1253Y2049D03*
X1392Y2442D03*
X1510Y2442D03*
X1372Y2087D03*
X2572Y2167D03*
X1589Y2463D03*
X1589Y2048D03*
X1589Y1930D03*
X446Y1635D03*
X367Y808D03*
X505Y808D03*
X348Y415D03*
X170Y415D03*
X821Y1911D03*
X643Y1911D03*
X821Y1656D03*
X959Y1656D03*
X643Y1005D03*
X802Y1005D03*
X643Y394D03*
X505Y513D03*
X702Y513D03*
X1667Y2265D03*
X1391Y454D03*
X2494Y2010D03*
X2494Y2265D03*
X1667Y1064D03*
X1667Y749D03*
X2238Y651D03*
X2238Y494D03*
X1588Y494D03*
X2554Y1753D03*
X2415Y749D03*
X1942Y513D03*
X2159Y711D03*
X2159Y2069D03*
X2159Y1951D03*
X2494Y2344D03*
X2219Y1851D03*
X2473Y591D03*
G54D13*
X2218Y1143D03*
X2516Y1143D03*
X2218Y1143D03*
X2516Y1143D03*
G54D12*
X2631Y711D03*
X1627Y1792D03*
X1627Y1142D03*
X959Y1046D03*
X1038Y435D03*
G54D10*
X916Y2583D03*
X1054Y2583D03*
X1192Y2583D03*
X1330Y2583D03*
G54D14*
X2105Y483D03*
X2005Y483D03*
X1195Y2068D03*
X1195Y2168D03*
X1195Y1911D03*
X1195Y1811D03*
X1155Y730D03*
X1155Y830D03*
X722Y1517D03*
X722Y1617D03*
X1480Y508D03*
X1480Y408D03*
X955Y508D03*
X955Y408D03*
X447Y513D03*
X447Y413D03*
X1780Y483D03*
X1680Y483D03*
X2430Y483D03*
X2330Y483D03*
G54D15*
X1057Y1005D03*
X1057Y809D03*
X565Y809D03*
X565Y1005D03*
X1057Y1005D03*
X1057Y809D03*
X565Y809D03*
X565Y1005D03*
X1057Y1005D03*
X1057Y809D03*
X565Y809D03*
X565Y1005D03*
X1529Y1557D03*
X1529Y1360D03*
X1037Y1360D03*
X1037Y1557D03*
X1529Y1557D03*
X1529Y1360D03*
X1037Y1360D03*
X1037Y1557D03*
X1529Y1557D03*
X1529Y1360D03*
X1037Y1360D03*
X1037Y1557D03*
X584Y1557D03*
X584Y1360D03*
X92Y1360D03*
X92Y1557D03*
X584Y1557D03*
X584Y1360D03*
X92Y1360D03*
X92Y1557D03*
X584Y1557D03*
X584Y1360D03*
X92Y1360D03*
X92Y1557D03*
X1057Y2108D03*
X1057Y1911D03*
X565Y1911D03*
X565Y2108D03*
X1057Y2108D03*
X1057Y1911D03*
X565Y1911D03*
X565Y2108D03*
X1057Y2108D03*
X1057Y1911D03*
X565Y1911D03*
X565Y2108D03*
G54D16*
X305Y327D03*
X305Y583D03*
X127Y327D03*
X127Y583D03*
X305Y327D03*
X305Y583D03*
X127Y327D03*
X127Y583D03*
X305Y327D03*
X305Y583D03*
X127Y327D03*
X127Y583D03*
X817Y328D03*
X817Y584D03*
X639Y328D03*
X639Y584D03*
X817Y328D03*
X817Y584D03*
X639Y328D03*
X639Y584D03*
X817Y328D03*
X817Y584D03*
X639Y328D03*
X639Y584D03*
X1330Y327D03*
X1330Y583D03*
X1152Y327D03*
X1152Y583D03*
X1330Y327D03*
X1330Y583D03*
X1152Y327D03*
X1152Y583D03*
X1330Y327D03*
X1330Y583D03*
X1152Y327D03*
X1152Y583D03*
G54D17*
X2632Y513D03*
G54D18*
X2649Y1065D03*
G54D19*
X2217Y1143D03*
X2217Y1143D03*
G54D17*
X916Y2583D03*
G54D20*
X1274Y2029D02*
X1497Y2029D01*
D02*
X1614Y1989D02*
X1148Y1989D01*
D02*
X874Y2246D02*
X984Y2246D01*
D02*
X446Y1648D02*
X446Y1754D01*
D02*
X1589Y2062D02*
X1589Y2449D01*
D02*
X2534Y2167D02*
X2559Y2167D01*
D02*
X2534Y2658D02*
X2534Y2167D01*
D02*
X1549Y2658D02*
X2534Y2658D01*
D02*
X1549Y2087D02*
X1549Y2658D01*
D02*
X1386Y2087D02*
X1549Y2087D01*
D02*
X1496Y2442D02*
X1405Y2442D01*
D02*
X1263Y2040D02*
X1274Y2029D01*
D02*
X656Y1911D02*
X808Y1911D01*
D02*
X184Y415D02*
X335Y415D01*
D02*
X519Y808D02*
X536Y808D01*
D02*
X381Y808D02*
X492Y808D01*
D02*
X446Y1754D02*
X1313Y1754D01*
D02*
X1313Y1754D02*
X1313Y1930D01*
D02*
X1313Y1930D02*
X1576Y1930D01*
D02*
X656Y1005D02*
X788Y1005D01*
D02*
X834Y1656D02*
X945Y1656D01*
D02*
X1391Y1202D02*
X1372Y1242D01*
D02*
X1372Y1242D02*
X1372Y1675D01*
D02*
X1391Y467D02*
X1391Y1202D01*
D02*
X1372Y1675D02*
X1667Y1930D01*
D02*
X1667Y1930D02*
X1667Y2251D01*
D02*
X519Y513D02*
X689Y513D01*
D02*
X1947Y525D02*
X2041Y749D01*
D02*
X2041Y749D02*
X2402Y749D01*
D02*
X1982Y1753D02*
X2540Y1753D01*
D02*
X1963Y670D02*
X1982Y1753D01*
D02*
X1588Y670D02*
X1963Y670D01*
D02*
X1588Y507D02*
X1588Y670D01*
D02*
X2237Y507D02*
X2237Y638D01*
D02*
X1667Y1051D02*
X1667Y762D01*
D02*
X2494Y2023D02*
X2494Y2251D01*
D02*
X2481Y2344D02*
X2219Y2344D01*
D02*
X2219Y2344D02*
X2219Y1865D01*
D02*
X2159Y2056D02*
X2159Y1965D01*
D02*
X2533Y434D02*
X2533Y572D01*
D02*
X2533Y572D02*
X2486Y587D01*
D02*
X2610Y388D02*
X2533Y434D01*
D02*
X2173Y711D02*
X2617Y711D01*
D02*
X959Y1032D02*
X959Y749D01*
D02*
X1627Y1779D02*
X1627Y1156D01*
D02*
X1038Y591D02*
X1038Y448D01*
D02*
X959Y749D02*
X1038Y591D01*
G04 End of Copper1*
M02*