; NON-PLATED HOLES START AT T1
; THROUGH (PLATED) HOLES START AT T100
M48
INCH
T1C0.129921
T100C0.047244
T101C0.015748
T102C0.038000
T103C0.040000
T104C0.035000
T105C0.042000
%
T1
X002497Y009659
X026316Y000998
X002497Y023045
X012733Y000998
X012733Y009659
X012733Y023045
X002497Y000998
T100
X005844Y015565
X005647Y021077
X015293Y015565
X010568Y021077
X000922Y013596
X015293Y013596
X005647Y010053
X005647Y019108
X010568Y008085
X005647Y008085
X010568Y010053
X000922Y015565
X010371Y013596
X010568Y019108
X010371Y015565
X005844Y013596
T101
X016271Y019892
X022188Y018514
X004458Y016348
X025724Y021665
X007022Y005130
X010381Y004349
X016670Y010643
X015881Y004938
X015099Y020285
X024733Y005910
X015096Y024417
X009589Y010456
X016670Y022646
X013920Y024419
X021594Y020691
X003673Y008079
X016265Y011421
X006429Y019105
X024154Y007494
X006429Y003944
X009587Y016558
X003481Y004153
X015889Y024625
X013914Y004537
X005051Y008079
X016670Y007486
X024940Y020099
X024940Y023439
X008017Y010050
X024940Y022646
X026306Y007111
X001702Y004153
X011348Y019886
X005051Y005130
X008209Y019105
X009978Y022455
X019421Y005127
X022375Y004938
X006429Y010050
X021594Y007108
X021594Y019511
X025536Y017528
X012533Y020490
X008601Y022455
X022375Y006510
X016265Y017923
X015889Y019303
X008209Y016558
X013721Y020872
X015889Y020484
T102
X026496Y025639
X017496Y010644
X017496Y021644
X017496Y022644
X017496Y025639
X022970Y002360
X017496Y024639
X022970Y003360
X017496Y023639
X026496Y013644
X019820Y002360
X026496Y015644
X026492Y010646
X017496Y012644
X026496Y012644
X026492Y011646
X026496Y019644
X017496Y017644
X022970Y001360
X017496Y014644
X026496Y017644
X019820Y001360
X017496Y019644
X017496Y018644
X017496Y016644
X016670Y001360
X016670Y003360
X017496Y020644
X026496Y021644
X026496Y022644
X019820Y003360
X016670Y002360
X026496Y023639
X026496Y016644
X017496Y011644
X017496Y015644
X026496Y014644
X026496Y024639
X026496Y020644
X017496Y013644
X026496Y018644
T103
X011518Y003273
X009164Y025833
X001268Y003273
X013298Y005833
X006386Y003281
X013298Y025833
X010542Y025833
X011920Y025833
X026316Y003754
X003048Y005833
X026316Y005132
X008166Y005841
X006386Y005841
X008166Y003281
X011518Y005833
X013298Y003273
X001268Y005833
X003048Y003273
T104
X017798Y004833
X009548Y004083
X014798Y004083
X011946Y019108
X011946Y020683
X004466Y005132
X011552Y007297
X011946Y021683
X009548Y005083
X011552Y008297
X023298Y004833
X007222Y015171
X020048Y004833
X004466Y004132
X021048Y004833
X024298Y004833
X014798Y005083
X016798Y004833
X007222Y016171
X011946Y018108
T105
X022182Y011431
X025162Y011431
T00
M30
