; NON-PLATED HOLES START AT T1
; THROUGH (PLATED) HOLES START AT T100
M48
INCH
T1C0.128000
T2C0.125984
T100C0.040000
T101C0.015748
T102C0.042000
T103C0.059055
T104C0.038000
T105C0.039111
T106C0.078740
T107C0.039370
T108C0.086614
%
T1
X001079Y015135
X001079Y019135
T2
X001299Y003026
X001299Y022361
X024210Y002978
T100
X015079Y001684
X009579Y025884
X003579Y016885
X004579Y016385
X004579Y018385
X006601Y001384
X008201Y025884
X003579Y017885
X007979Y001384
X005057Y001384
X004579Y017385
X017835Y001684
X003679Y001384
X013702Y001684
X003579Y015885
X016457Y001684
X009357Y001384
T101
X013289Y013595
X019572Y026477
X030579Y027184
X007576Y010483
X018176Y018688
X014583Y010885
X016373Y017882
X017887Y015883
X017785Y018084
X019774Y016877
X015079Y011284
X018885Y002277
X017580Y021078
X016072Y010889
X017975Y023883
X018190Y005184
X018980Y009198
X017887Y012778
X006570Y015988
X006578Y018884
X017975Y022290
X009470Y021180
X016185Y018486
X003184Y004977
X014279Y005384
X017580Y016879
X016185Y020882
X003988Y002483
X003370Y014891
X007286Y002091
X013392Y004972
X014583Y010088
X017185Y017288
X006791Y025874
X026782Y016097
X029579Y014384
X011177Y013675
X016794Y024086
X027579Y013984
X017188Y022488
X017975Y019486
X017580Y019882
X031181Y016097
X029576Y025075
X016382Y016683
X017583Y018688
X017079Y003484
X014579Y012084
T102
X009479Y023484
X009479Y019808
T103
X002957Y025884
X001579Y025884
T104
X015479Y021884
X015479Y024884
X015479Y018884
X015479Y016884
X007579Y012784
X015479Y020884
X012579Y012784
X015579Y012784
X010579Y012784
X006579Y012784
X016579Y012784
X013579Y012784
X011579Y012784
X014579Y003884
X005579Y012784
X015479Y025884
X015479Y014884
X008579Y012784
X015479Y023884
X014579Y012784
X009579Y012784
X014479Y014884
X015479Y015884
X015479Y019884
X013579Y003884
X015479Y017884
X015479Y022884
X006579Y016884
X016579Y011784
X006579Y017884
T105
X028579Y019885
X018580Y017885
X029579Y011885
X030579Y020885
X027579Y025885
X023580Y019885
X021579Y017885
X022579Y019885
X023580Y025885
X026578Y020885
X026578Y012885
X019579Y025885
X022579Y025885
X023580Y017885
X028579Y025885
X021579Y019885
X031579Y025885
X018579Y023885
X019579Y011885
X018580Y012885
X020579Y011885
X027578Y020885
X021579Y025885
X027579Y019885
X018579Y013885
X020579Y019885
X024579Y025885
X029579Y025885
X026579Y017885
X025579Y025885
X028579Y011885
X018579Y015885
X020579Y025885
X018579Y022885
X025579Y017885
X019579Y017885
X029579Y017885
X030579Y011885
X031579Y017885
X023580Y011885
X018579Y014885
X027579Y011885
X029579Y019885
X025579Y019885
X025579Y011885
X021579Y011885
X018580Y011885
X030579Y019885
X030579Y017885
X022579Y011885
X024579Y011885
X018580Y016885
X030579Y025885
X030579Y012885
X031579Y019885
X028579Y012885
X028579Y020885
X022579Y017885
X026579Y025885
X020579Y017885
X026579Y019885
X019579Y019885
X018579Y021885
X026579Y011885
X028579Y017885
X027579Y017885
X018580Y024885
X018580Y019885
X018580Y020885
X024579Y019885
X018580Y025885
X027578Y012885
X024579Y017885
X031579Y011885
T106
X009479Y019784
X009479Y023484
T107
X006579Y021884
X006579Y019884
X020579Y009184
X020579Y002184
X020579Y007184
X020579Y001184
X011579Y003884
X020579Y006184
X020579Y003184
X006579Y022884
X020579Y008184
X006579Y020884
X010579Y003884
X009579Y003884
X020579Y004184
X008579Y003884
X020579Y005184
T108
X032136Y009184
X032136Y001184
T00
M30
