G04 MADE WITH FRITZING*
G04 WWW.FRITZING.ORG*
G04 DOUBLE SIDED*
G04 HOLES PLATED*
G04 CONTOUR ON CENTER OF CONTOUR VECTOR*
%ASAXBY*%
%FSLAX23Y23*%
%MOIN*%
%OFA0B0*%
%SFA1.0B1.0*%
%ADD10C,0.049370*%
%ADD11C,0.080000*%
%ADD12C,0.128110*%
%ADD13C,0.090000*%
%ADD14C,0.167480*%
%ADD15C,0.084000*%
%ADD16C,0.138000*%
%ADD17C,0.089370*%
%ADD18C,0.076889*%
%ADD19C,0.092000*%
%ADD20C,0.088000*%
%ADD21C,0.109055*%
%ADD22C,0.135984*%
%ADD23R,0.090000X0.090000*%
%ADD24R,0.062264X0.049500*%
%ADD25R,0.092000X0.092000*%
%ADD26R,0.109055X0.109055*%
%LNMASK0*%
G90*
G70*
G54D10*
X1889Y228D03*
X1898Y920D03*
X1819Y518D03*
X1708Y348D03*
G54D11*
X2058Y118D03*
X2058Y218D03*
X2058Y318D03*
X2058Y418D03*
X2058Y518D03*
X2058Y618D03*
X2058Y718D03*
X2058Y818D03*
X2058Y918D03*
G54D12*
X3214Y918D03*
X3214Y118D03*
G54D13*
X1784Y168D03*
X1646Y168D03*
X1508Y168D03*
X1370Y168D03*
G54D10*
X1679Y2409D03*
X3058Y2718D03*
X1957Y2648D03*
X1758Y2108D03*
X1798Y2388D03*
X1719Y2249D03*
X1619Y2088D03*
X1758Y1988D03*
X1638Y1668D03*
X1719Y1729D03*
X1619Y1849D03*
X2958Y2508D03*
X1758Y1869D03*
X1818Y1869D03*
X2958Y1438D03*
X758Y1048D03*
X2758Y1398D03*
X1458Y1208D03*
X1458Y1089D03*
X1458Y1009D03*
X1789Y1278D03*
X1789Y1588D03*
X1607Y1089D03*
X1508Y1128D03*
X658Y1888D03*
X1428Y538D03*
X1339Y497D03*
X657Y1599D03*
X1329Y1360D03*
X1758Y1688D03*
X2678Y1610D03*
X3118Y1610D03*
X1977Y1688D03*
X1118Y1368D03*
G54D14*
X948Y2348D03*
X948Y1978D03*
G54D10*
X1798Y1949D03*
X1798Y2229D03*
X1637Y1788D03*
X1779Y1808D03*
X679Y2587D03*
X947Y2118D03*
G54D15*
X458Y1839D03*
X358Y1789D03*
X458Y1739D03*
X358Y1689D03*
X458Y1639D03*
X358Y1589D03*
G54D16*
X108Y1914D03*
X108Y1514D03*
G54D13*
X506Y138D03*
X368Y138D03*
X936Y138D03*
X798Y138D03*
X660Y138D03*
G54D17*
X858Y388D03*
X958Y388D03*
X1058Y388D03*
X1158Y388D03*
X658Y2288D03*
X658Y2188D03*
X658Y2088D03*
X658Y1988D03*
G54D18*
X1858Y1189D03*
X1958Y1189D03*
X2058Y1189D03*
X2158Y1189D03*
X2258Y1189D03*
X2358Y1189D03*
X2458Y1189D03*
X2558Y1189D03*
X2658Y1189D03*
X2758Y1189D03*
X2858Y1189D03*
X2958Y1189D03*
X3058Y1189D03*
X3158Y1189D03*
X3058Y1289D03*
X1858Y1789D03*
X1958Y1789D03*
X2058Y1789D03*
X2158Y1789D03*
X2258Y1789D03*
X2358Y1789D03*
X2458Y1789D03*
X2558Y1789D03*
X2658Y1789D03*
X2758Y1789D03*
X2858Y1789D03*
X2958Y1789D03*
X3058Y1789D03*
X3158Y1789D03*
X2758Y1289D03*
X2858Y1289D03*
X2658Y1289D03*
X1858Y1589D03*
X1858Y1689D03*
X1858Y1489D03*
X1858Y1289D03*
X1858Y1389D03*
X1858Y1989D03*
X1958Y1989D03*
X2058Y1989D03*
X2158Y1989D03*
X2258Y1989D03*
X2358Y1989D03*
X2458Y1989D03*
X2558Y1989D03*
X2658Y1989D03*
X2758Y1989D03*
X2858Y1989D03*
X2958Y1989D03*
X3058Y1989D03*
X3158Y1989D03*
X3058Y2089D03*
X1858Y2589D03*
X1958Y2589D03*
X2058Y2589D03*
X2158Y2589D03*
X2258Y2589D03*
X2358Y2589D03*
X2458Y2589D03*
X2558Y2589D03*
X2658Y2589D03*
X2758Y2589D03*
X2858Y2589D03*
X2958Y2589D03*
X3058Y2589D03*
X3158Y2589D03*
X2758Y2089D03*
X2858Y2089D03*
X2658Y2089D03*
X1858Y2389D03*
X1858Y2489D03*
X1858Y2289D03*
X1858Y2089D03*
X1858Y2189D03*
G54D13*
X958Y2588D03*
X820Y2588D03*
X958Y2588D03*
X820Y2588D03*
G54D19*
X948Y2348D03*
X948Y1981D03*
X948Y2348D03*
X948Y1981D03*
G54D20*
X558Y1278D03*
X658Y1278D03*
X758Y1278D03*
X858Y1278D03*
X958Y1278D03*
X1058Y1278D03*
X1158Y1278D03*
X1258Y1278D03*
X1358Y1278D03*
X1458Y1278D03*
X1558Y1278D03*
X1548Y2588D03*
X1548Y2488D03*
X1548Y2388D03*
X1548Y2288D03*
X1548Y2188D03*
X1548Y2088D03*
X1548Y1988D03*
X1548Y1888D03*
X1548Y1788D03*
X1548Y1688D03*
X1548Y1588D03*
X1358Y388D03*
X1458Y388D03*
X658Y1788D03*
X658Y1688D03*
X1658Y1278D03*
X1658Y1178D03*
X1548Y1488D03*
X1448Y1488D03*
G54D21*
X158Y2588D03*
X296Y2588D03*
G54D22*
X2421Y298D03*
X130Y303D03*
X130Y2236D03*
G54D10*
X399Y248D03*
X318Y498D03*
X337Y1489D03*
X729Y209D03*
G54D23*
X1784Y168D03*
X506Y138D03*
X936Y138D03*
G54D24*
X2459Y1389D03*
X2459Y1488D03*
X2558Y1389D03*
X2558Y1488D03*
X2359Y1389D03*
X2259Y1389D03*
X2159Y1389D03*
X2059Y1389D03*
X1959Y1389D03*
X1959Y1488D03*
X2059Y1488D03*
X2159Y1488D03*
X2259Y1488D03*
X2359Y1488D03*
X2459Y2189D03*
X2459Y2288D03*
X2558Y2189D03*
X2558Y2288D03*
X2359Y2189D03*
X2259Y2189D03*
X2159Y2189D03*
X2059Y2189D03*
X1959Y2189D03*
X1959Y2288D03*
X2059Y2288D03*
X2159Y2288D03*
X2259Y2288D03*
X2359Y2288D03*
G54D23*
X958Y2588D03*
X958Y2588D03*
G54D25*
X948Y2349D03*
X948Y2349D03*
G54D26*
X158Y2588D03*
G04 End of Mask0*
M02*