; NON-PLATED HOLES START AT T1
; THROUGH (PLATED) HOLES START AT T100
M48
INCH
T100C0.015748
T101C0.038000
T102C0.040000
T103C0.035000
T104C0.042000
T105C0.129921
%
T100
X013161Y014225
X008661Y023975
X006161Y021225
X006661Y012725
X020661Y006475
X007550Y013725
X009411Y021475
X002411Y021475
X000411Y022725
X011161Y018725
X020661Y011225
X003161Y010725
X003161Y007725
X007661Y022475
X013911Y002975
X000911Y024475
X002911Y023975
X019661Y009725
X014661Y009975
X001661Y012975
X020161Y008225
X004926Y018993
X001161Y010975
X004911Y020975
X017661Y007475
X005911Y021975
X005661Y012975
X020161Y005836
X008911Y013725
X008911Y014975
X019161Y008975
X012661Y004975
X016661Y011225
X001661Y023475
X015161Y022975
X005409Y017979
X002411Y019975
X018161Y003975
X018161Y024475
X003661Y021475
X010161Y001725
X013661Y010475
X015661Y009975
X019161Y008225
X007661Y016475
X011161Y019475
X009411Y019975
X017550Y004475
X006661Y022975
X001161Y012225
X018661Y007975
X019661Y013225
X014411Y015975
X018161Y014225
X005411Y020475
X019661Y004975
X012411Y015475
X017661Y008975
X009161Y004975
X017661Y023475
X019661Y006975
X002911Y018975
X018661Y013725
X003911Y014086
X016161Y012725
X014661Y020975
X003661Y004336
T101
X006673Y019968
X010161Y018975
X001661Y020975
X015161Y014975
X015161Y015975
X010161Y017975
X015161Y018975
X010161Y020975
X001661Y019975
X010161Y021975
X010161Y019975
X006673Y021968
X015161Y020975
X001661Y015975
X006673Y014968
X015161Y016975
X010161Y014975
X001661Y017975
X006673Y018968
X001661Y018975
X001661Y021975
X006673Y017968
X015161Y019975
X006673Y016968
X001661Y016975
X015161Y021975
X010161Y015975
X015161Y017975
X001661Y014975
X010161Y016975
X006673Y015968
X006673Y020968
T102
X009661Y011975
X003133Y000925
X004661Y009475
X004661Y011475
X016661Y005975
X006661Y005975
X008039Y025725
X013661Y011975
X008661Y011975
X009661Y005975
X013911Y000975
X004661Y007475
X015039Y025725
X006661Y025725
X007661Y005975
X003905Y025725
X004661Y008475
X011661Y005975
X014661Y011975
X015661Y005975
X015661Y011975
X012533Y000975
X010661Y011975
X006233Y000925
X014661Y005975
X012283Y025725
X004511Y000925
X007661Y011975
X011661Y011975
X015289Y000975
X005661Y005975
X010661Y005975
X010111Y010825
X005661Y011975
X005283Y025725
X006661Y011975
X004661Y006475
X011155Y000975
X013661Y005975
X012661Y011975
X010905Y025725
X007611Y000925
X009111Y010825
X013661Y025725
X016661Y011975
X008661Y005975
X004661Y010475
X012661Y005975
T103
X002163Y009466
X001163Y009466
T104
X009161Y003955
X002179Y004753
X002179Y007509
X009161Y000975
T105
X001036Y026350
X020289Y026406
X020289Y003178
X000998Y003178
T00
M30
