G04 MADE WITH FRITZING*
G04 WWW.FRITZING.ORG*
G04 DOUBLE SIDED*
G04 HOLES PLATED*
G04 CONTOUR ON CENTER OF CONTOUR VECTOR*
%ASAXBY*%
%FSLAX23Y23*%
%MOIN*%
%OFA0B0*%
%SFA1.0B1.0*%
%ADD10C,0.049370*%
%ADD11C,0.094500*%
%ADD12C,0.090000*%
%ADD13C,0.092000*%
%ADD14C,0.163543*%
%ADD15C,0.085000*%
%ADD16C,0.084000*%
%ADD17C,0.088000*%
%ADD18R,0.092000X0.092000*%
%ADD19R,0.090000X0.090000*%
%ADD20R,0.085000X0.085000*%
%LNMASK1*%
G90*
G70*
G54D10*
X541Y2048D03*
X541Y1798D03*
X491Y2098D03*
X493Y1899D03*
X1516Y2298D03*
X666Y2298D03*
X166Y2348D03*
X591Y2198D03*
X41Y2273D03*
X616Y2123D03*
X116Y1098D03*
X116Y1223D03*
X366Y2148D03*
X766Y2248D03*
X1466Y2098D03*
X291Y2398D03*
X866Y2398D03*
X1316Y1423D03*
X1766Y2348D03*
X1816Y1423D03*
X1241Y1548D03*
X1441Y1598D03*
X1116Y1948D03*
X1866Y1373D03*
X1766Y748D03*
X1116Y1873D03*
X666Y1273D03*
X1616Y1273D03*
X941Y2148D03*
X941Y1998D03*
X241Y2148D03*
X241Y1998D03*
X291Y1898D03*
X766Y1648D03*
X566Y1298D03*
X916Y498D03*
X1916Y898D03*
X1766Y898D03*
X91Y2448D03*
X1816Y2448D03*
X1966Y1323D03*
X1966Y973D03*
X1666Y1123D03*
X2066Y1123D03*
X1366Y1048D03*
X2016Y823D03*
X1466Y998D03*
X1566Y998D03*
X1391Y298D03*
X1916Y823D03*
X1866Y798D03*
X166Y1298D03*
X1966Y698D03*
X1966Y498D03*
X1016Y173D03*
X1266Y498D03*
X316Y1073D03*
X316Y773D03*
X891Y1498D03*
X391Y1409D03*
X366Y434D03*
X1755Y448D03*
X2066Y648D03*
X1816Y398D03*
X2016Y584D03*
X755Y1373D03*
X891Y1373D03*
G54D11*
X218Y751D03*
X218Y475D03*
G54D12*
X1116Y98D03*
X1253Y98D03*
X1391Y98D03*
X1529Y98D03*
X391Y2573D03*
X528Y2573D03*
X666Y2573D03*
X804Y2573D03*
X1091Y2573D03*
X1228Y2573D03*
X1366Y2573D03*
X1504Y2573D03*
G54D13*
X916Y396D03*
X916Y98D03*
G54D12*
X623Y93D03*
X761Y93D03*
X313Y93D03*
X451Y93D03*
G54D14*
X100Y318D03*
X2029Y318D03*
X2029Y2641D03*
X104Y2635D03*
G54D15*
X116Y947D03*
X216Y947D03*
G54D16*
X466Y1148D03*
X466Y1048D03*
X466Y948D03*
X466Y848D03*
X466Y748D03*
X466Y648D03*
X566Y1198D03*
X666Y1198D03*
X766Y1198D03*
X866Y1198D03*
X966Y1198D03*
X911Y1083D03*
X1011Y1083D03*
X1066Y1198D03*
X1166Y1198D03*
X1266Y1198D03*
X1366Y1198D03*
X1466Y1198D03*
X1566Y1198D03*
X1666Y1198D03*
X1666Y598D03*
X1566Y598D03*
X1466Y598D03*
X1366Y598D03*
X1266Y598D03*
X1166Y598D03*
X1066Y598D03*
X966Y598D03*
X866Y598D03*
X766Y598D03*
X666Y598D03*
X566Y598D03*
G54D17*
X667Y2197D03*
X667Y2097D03*
X667Y1997D03*
X667Y1897D03*
X667Y1797D03*
X667Y1697D03*
X667Y1597D03*
X667Y1497D03*
X166Y2198D03*
X166Y2098D03*
X166Y1998D03*
X166Y1898D03*
X166Y1798D03*
X166Y1698D03*
X166Y1598D03*
X166Y1498D03*
X1016Y2198D03*
X1016Y2098D03*
X1016Y1998D03*
X1016Y1898D03*
X1016Y1798D03*
X1016Y1698D03*
X1016Y1598D03*
X1016Y1498D03*
X1516Y2198D03*
X1516Y2098D03*
X1516Y1998D03*
X1516Y1898D03*
X1516Y1798D03*
X1516Y1698D03*
X1516Y1598D03*
X1516Y1498D03*
G54D18*
X218Y751D03*
G54D19*
X1116Y98D03*
X391Y2573D03*
X1091Y2573D03*
G54D18*
X916Y397D03*
G54D19*
X623Y93D03*
X313Y93D03*
G54D20*
X116Y947D03*
G04 End of Mask1*
M02*