G04 MADE WITH FRITZING*
G04 WWW.FRITZING.ORG*
G04 DOUBLE SIDED*
G04 HOLES PLATED*
G04 CONTOUR ON CENTER OF CONTOUR VECTOR*
%ASAXBY*%
%FSLAX23Y23*%
%MOIN*%
%OFA0B0*%
%SFA1.0B1.0*%
%ADD10C,0.039370*%
%ADD11C,0.082000*%
%ADD12C,0.080000*%
%ADD13C,0.153543*%
%ADD14C,0.075000*%
%ADD15C,0.074000*%
%ADD16C,0.078000*%
%ADD17R,0.082000X0.082000*%
%ADD18R,0.080000X0.080000*%
%ADD19R,0.075000X0.075000*%
%ADD20C,0.032000*%
%ADD21C,0.024000*%
%LNCOPPER1*%
G90*
G70*
G54D10*
X541Y2048D03*
X541Y1798D03*
X491Y2098D03*
X493Y1899D03*
X1516Y2298D03*
X666Y2298D03*
X166Y2348D03*
X591Y2198D03*
X41Y2273D03*
X616Y2123D03*
X116Y1098D03*
X116Y1223D03*
X366Y2148D03*
X766Y2248D03*
X1466Y2098D03*
X291Y2398D03*
X866Y2398D03*
X1316Y1423D03*
X1766Y2348D03*
X1816Y1423D03*
X1241Y1548D03*
X1441Y1598D03*
X1116Y1948D03*
X1866Y1373D03*
X1766Y748D03*
X1116Y1873D03*
X666Y1273D03*
X1616Y1273D03*
X941Y2148D03*
X941Y1998D03*
X241Y2148D03*
X241Y1998D03*
X291Y1898D03*
X766Y1648D03*
X566Y1298D03*
X916Y498D03*
X1916Y898D03*
X1766Y898D03*
X91Y2448D03*
X1816Y2448D03*
X1966Y1323D03*
X1966Y973D03*
X1666Y1123D03*
X2066Y1123D03*
X1366Y1048D03*
X2016Y823D03*
X1466Y998D03*
X1566Y998D03*
X1391Y298D03*
X1916Y823D03*
X1866Y798D03*
X166Y1298D03*
X1966Y698D03*
X1966Y498D03*
X1016Y173D03*
X1266Y498D03*
X316Y1073D03*
X316Y773D03*
X891Y1498D03*
X391Y1409D03*
X366Y434D03*
X1755Y448D03*
X2066Y648D03*
X1816Y398D03*
X2016Y584D03*
X755Y1373D03*
X891Y1373D03*
G54D11*
X218Y751D03*
X218Y475D03*
G54D12*
X1116Y98D03*
X1253Y98D03*
X1391Y98D03*
X1529Y98D03*
X391Y2573D03*
X528Y2573D03*
X666Y2573D03*
X804Y2573D03*
X1091Y2573D03*
X1228Y2573D03*
X1366Y2573D03*
X1504Y2573D03*
G54D11*
X916Y396D03*
X916Y98D03*
G54D12*
X623Y93D03*
X761Y93D03*
X313Y93D03*
X451Y93D03*
G54D13*
X100Y318D03*
X2029Y318D03*
X2029Y2641D03*
X104Y2635D03*
G54D14*
X116Y947D03*
X216Y947D03*
G54D15*
X466Y1148D03*
X466Y1048D03*
X466Y948D03*
X466Y848D03*
X466Y748D03*
X466Y648D03*
X566Y1198D03*
X666Y1198D03*
X766Y1198D03*
X866Y1198D03*
X966Y1198D03*
X911Y1083D03*
X1011Y1083D03*
X1066Y1198D03*
X1166Y1198D03*
X1266Y1198D03*
X1366Y1198D03*
X1466Y1198D03*
X1566Y1198D03*
X1666Y1198D03*
X1666Y598D03*
X1566Y598D03*
X1466Y598D03*
X1366Y598D03*
X1266Y598D03*
X1166Y598D03*
X1066Y598D03*
X966Y598D03*
X866Y598D03*
X766Y598D03*
X666Y598D03*
X566Y598D03*
G54D16*
X667Y2197D03*
X667Y2097D03*
X667Y1997D03*
X667Y1897D03*
X667Y1797D03*
X667Y1697D03*
X667Y1597D03*
X667Y1497D03*
X166Y2198D03*
X166Y2098D03*
X166Y1998D03*
X166Y1898D03*
X166Y1798D03*
X166Y1698D03*
X166Y1598D03*
X166Y1498D03*
X1016Y2198D03*
X1016Y2098D03*
X1016Y1998D03*
X1016Y1898D03*
X1016Y1798D03*
X1016Y1698D03*
X1016Y1598D03*
X1016Y1498D03*
X1516Y2198D03*
X1516Y2098D03*
X1516Y1998D03*
X1516Y1898D03*
X1516Y1798D03*
X1516Y1698D03*
X1516Y1598D03*
X1516Y1498D03*
G54D17*
X218Y751D03*
G54D18*
X1116Y98D03*
X391Y2573D03*
X1091Y2573D03*
G54D17*
X916Y397D03*
G54D18*
X623Y93D03*
X313Y93D03*
G54D19*
X116Y947D03*
G54D20*
X1416Y2384D02*
X1005Y2384D01*
D02*
X1005Y2384D02*
X916Y2298D01*
D02*
X916Y2298D02*
X691Y2298D01*
D02*
X1498Y2314D02*
X1416Y2384D01*
G54D21*
D02*
X491Y2079D02*
X492Y1918D01*
D02*
X541Y2029D02*
X541Y1817D01*
G54D20*
D02*
X116Y1198D02*
X116Y1122D01*
D02*
X566Y2148D02*
X391Y2148D01*
D02*
X594Y2134D02*
X566Y2148D01*
D02*
X66Y2273D02*
X391Y2273D01*
D02*
X391Y2273D02*
X391Y2198D01*
D02*
X391Y2198D02*
X567Y2198D01*
G54D21*
D02*
X1680Y2434D02*
X991Y2434D01*
D02*
X991Y2434D02*
X905Y2348D01*
D02*
X905Y2348D02*
X817Y2349D01*
D02*
X817Y2349D02*
X766Y2384D01*
D02*
X766Y2384D02*
X366Y2384D01*
D02*
X366Y2384D02*
X341Y2348D01*
D02*
X341Y2348D02*
X185Y2348D01*
D02*
X805Y2448D02*
X851Y2410D01*
D02*
X341Y2448D02*
X805Y2448D01*
D02*
X1847Y1373D02*
X1166Y1373D01*
D02*
X1166Y1373D02*
X1166Y1948D01*
D02*
X1241Y1567D02*
X1241Y1598D01*
D02*
X1241Y1598D02*
X1422Y1598D01*
D02*
X1797Y1423D02*
X1335Y1423D01*
D02*
X305Y2411D02*
X341Y2448D01*
D02*
X1753Y2361D02*
X1680Y2434D01*
D02*
X941Y2129D02*
X941Y2017D01*
D02*
X241Y2017D02*
X241Y2129D01*
D02*
X1597Y1273D02*
X685Y1273D01*
D02*
X1785Y748D02*
X1966Y748D01*
D02*
X1966Y748D02*
X1966Y954D01*
D02*
X1947Y1323D02*
X1116Y1323D01*
D02*
X1116Y1323D02*
X1116Y1854D01*
D02*
X1166Y1948D02*
X1116Y1948D01*
D02*
X1116Y1948D02*
X1103Y1961D01*
D02*
X541Y1698D02*
X541Y1423D01*
D02*
X441Y1773D02*
X541Y1698D01*
D02*
X366Y1298D02*
X547Y1298D01*
D02*
X366Y498D02*
X366Y1298D01*
D02*
X897Y498D02*
X366Y498D01*
D02*
X766Y1423D02*
X766Y1629D01*
D02*
X541Y1423D02*
X766Y1423D01*
D02*
X310Y1898D02*
X441Y1898D01*
D02*
X441Y1898D02*
X441Y1773D01*
D02*
X1755Y2484D02*
X141Y2484D01*
D02*
X141Y2484D02*
X107Y2459D01*
D02*
X2016Y1048D02*
X1385Y1048D01*
D02*
X2016Y842D02*
X2016Y1048D01*
D02*
X2047Y1123D02*
X1866Y1123D01*
D02*
X1866Y1123D02*
X1685Y1123D01*
D02*
X1800Y2457D02*
X1755Y2484D01*
D02*
X1785Y898D02*
X1897Y898D01*
D02*
X1410Y298D02*
X1852Y303D01*
D02*
X1852Y303D02*
X1957Y481D01*
D02*
X1947Y698D02*
X1466Y698D01*
D02*
X1466Y698D02*
X1466Y798D01*
D02*
X1916Y848D02*
X1916Y842D01*
D02*
X1566Y848D02*
X1916Y848D01*
D02*
X1466Y798D02*
X1466Y979D01*
D02*
X1566Y979D02*
X1566Y848D01*
D02*
X166Y848D02*
X316Y848D01*
D02*
X112Y442D02*
X116Y798D01*
D02*
X252Y383D02*
X112Y442D01*
D02*
X266Y1048D02*
X266Y1298D01*
D02*
X1266Y479D02*
X1266Y223D01*
D02*
X997Y173D02*
X266Y184D01*
D02*
X266Y184D02*
X252Y383D01*
D02*
X116Y798D02*
X166Y848D01*
D02*
X316Y848D02*
X316Y973D01*
D02*
X316Y973D02*
X266Y1048D01*
D02*
X266Y1298D02*
X185Y1298D01*
D02*
X716Y1384D02*
X737Y1378D01*
D02*
X655Y1348D02*
X705Y1323D01*
D02*
X705Y1323D02*
X816Y1323D01*
D02*
X1166Y509D02*
X1166Y298D01*
D02*
X407Y1398D02*
X430Y1384D01*
D02*
X430Y1384D02*
X716Y1384D01*
D02*
X1166Y298D02*
X366Y298D01*
D02*
X891Y1392D02*
X891Y1479D01*
D02*
X316Y1092D02*
X316Y1348D01*
D02*
X1266Y223D02*
X316Y248D01*
D02*
X316Y248D02*
X316Y754D01*
D02*
X316Y1348D02*
X655Y1348D01*
D02*
X816Y1323D02*
X816Y1598D01*
D02*
X816Y1598D02*
X986Y1598D01*
D02*
X1816Y417D02*
X1816Y584D01*
D02*
X1755Y648D02*
X2047Y648D01*
D02*
X366Y298D02*
X366Y415D01*
D02*
X1166Y566D02*
X1166Y509D01*
D02*
X1755Y467D02*
X1755Y648D01*
G54D20*
D02*
X1442Y2098D02*
X1216Y2098D01*
D02*
X1216Y2098D02*
X1216Y2323D01*
D02*
X1216Y2323D02*
X1016Y2323D01*
D02*
X1016Y2323D02*
X930Y2248D01*
D02*
X930Y2248D02*
X791Y2248D01*
G54D21*
D02*
X1816Y584D02*
X1997Y584D01*
G04 End of Copper1*
M02*