G04 MADE WITH FRITZING*
G04 WWW.FRITZING.ORG*
G04 DOUBLE SIDED*
G04 HOLES PLATED*
G04 CONTOUR ON CENTER OF CONTOUR VECTOR*
%ASAXBY*%
%FSLAX23Y23*%
%MOIN*%
%OFA0B0*%
%SFA1.0B1.0*%
%ADD10C,0.078000*%
%ADD11C,0.039370*%
%ADD12C,0.075000*%
%ADD13C,0.083307*%
%ADD14C,0.074000*%
%ADD15C,0.070000*%
%ADD16C,0.138425*%
%ADD17C,0.082000*%
%ADD18C,0.080000*%
%ADD19C,0.129921*%
%ADD20R,0.083307X0.083307*%
%ADD21R,0.082000X0.082000*%
%ADD22R,0.080000X0.080000*%
%ADD23R,0.075000X0.075000*%
%ADD24C,0.008000*%
%ADD25C,0.016000*%
%ADD26C,0.012000*%
%ADD27C,0.024000*%
%LNCOPPER1*%
G90*
G70*
G54D10*
X306Y2543D03*
X206Y2543D03*
G54D11*
X322Y2096D03*
X210Y1529D03*
X210Y1678D03*
X211Y1798D03*
X321Y1918D03*
X321Y1988D03*
X1072Y1378D03*
X796Y2593D03*
X645Y1649D03*
X971Y1217D03*
X761Y1238D03*
X641Y1478D03*
X770Y1649D03*
X671Y822D03*
X671Y723D03*
X1422Y1899D03*
X1422Y1797D03*
X721Y1698D03*
X921Y1448D03*
X2321Y1247D03*
X2521Y1849D03*
X1521Y2346D03*
X770Y1573D03*
X1771Y1573D03*
X1172Y1448D03*
X921Y398D03*
X2472Y2073D03*
X2446Y872D03*
X1847Y872D03*
X1721Y1122D03*
X2173Y947D03*
X1995Y1296D03*
X2298Y799D03*
X2370Y2346D03*
X2370Y2472D03*
X1221Y2472D03*
X2423Y1573D03*
X2423Y1421D03*
X2571Y1497D03*
X2370Y1497D03*
X2222Y1899D03*
X2222Y1797D03*
X2070Y1523D03*
X1870Y1523D03*
X1547Y272D03*
X2245Y723D03*
X1521Y1497D03*
X1373Y1523D03*
X1172Y1523D03*
X796Y674D03*
X796Y398D03*
X2173Y1698D03*
X2173Y1523D03*
X1008Y761D03*
X1008Y485D03*
X921Y1223D03*
X896Y723D03*
X871Y348D03*
X2121Y1088D03*
X2311Y978D03*
X2423Y1296D03*
X2423Y1157D03*
X151Y2408D03*
X721Y2096D03*
X102Y2398D03*
X102Y2637D03*
X271Y1878D03*
X380Y1907D03*
X2520Y2609D03*
X1521Y1823D03*
X1896Y1823D03*
X2422Y1848D03*
X1159Y761D03*
X732Y578D03*
X732Y678D03*
X1352Y688D03*
X1261Y1298D03*
X1661Y258D03*
X2302Y639D03*
X2320Y248D03*
X2581Y1398D03*
X2501Y228D03*
X2611Y228D03*
X2601Y1328D03*
X2521Y2358D03*
X2571Y2608D03*
X1801Y2557D03*
X1392Y2508D03*
X651Y2517D03*
X2161Y528D03*
X681Y2438D03*
G54D12*
X1846Y798D03*
X2246Y798D03*
X1846Y798D03*
X2246Y798D03*
X1246Y798D03*
X1646Y798D03*
X1246Y798D03*
X1646Y798D03*
G54D13*
X468Y2538D03*
X605Y2538D03*
X743Y2538D03*
X881Y2538D03*
G54D14*
X1096Y1113D03*
X1096Y1013D03*
X1096Y913D03*
X1096Y813D03*
X1096Y713D03*
X1096Y613D03*
X1196Y1163D03*
X1296Y1163D03*
X1396Y1163D03*
X1496Y1163D03*
X1596Y1163D03*
X1541Y1048D03*
X1641Y1048D03*
X1696Y1163D03*
X1796Y1163D03*
X1896Y1163D03*
X1996Y1163D03*
X2096Y1163D03*
X2196Y1163D03*
X2296Y1163D03*
X2296Y563D03*
X2196Y563D03*
X2096Y563D03*
X1996Y563D03*
X1896Y563D03*
X1796Y563D03*
X1696Y563D03*
X1596Y563D03*
X1496Y563D03*
X1396Y563D03*
X1296Y563D03*
X1196Y563D03*
G54D12*
X1846Y948D03*
X2246Y948D03*
X1846Y948D03*
X2246Y948D03*
X1246Y948D03*
X1646Y948D03*
X1246Y948D03*
X1646Y948D03*
G54D15*
X1071Y1443D03*
X1071Y1543D03*
X1071Y1643D03*
X1071Y1743D03*
X1071Y1843D03*
X1071Y1943D03*
X621Y1023D03*
G54D16*
X121Y523D03*
G54D15*
X621Y623D03*
X621Y823D03*
X621Y1223D03*
X621Y523D03*
X621Y723D03*
X621Y923D03*
X621Y1123D03*
G54D16*
X121Y1223D03*
G54D17*
X2529Y448D03*
X2231Y448D03*
G54D18*
X2131Y298D03*
X1993Y298D03*
G54D10*
X321Y2198D03*
X421Y2198D03*
X521Y2198D03*
X621Y2198D03*
X721Y2198D03*
X821Y2198D03*
X921Y2198D03*
X1021Y2198D03*
X1121Y2198D03*
X1221Y2198D03*
X1321Y2198D03*
X1421Y2198D03*
X1521Y2198D03*
X1621Y2198D03*
X1721Y2198D03*
X1821Y2198D03*
X1921Y2198D03*
X2021Y2198D03*
X2121Y2198D03*
X2221Y2198D03*
X321Y2198D03*
X421Y2198D03*
X521Y2198D03*
X621Y2198D03*
X721Y2198D03*
X821Y2198D03*
X921Y2198D03*
X1021Y2198D03*
X1121Y2198D03*
X1221Y2198D03*
X1321Y2198D03*
X1421Y2198D03*
X1521Y2198D03*
X1621Y2198D03*
X1721Y2198D03*
X1821Y2198D03*
X1921Y2198D03*
X2021Y2198D03*
X2121Y2198D03*
X2221Y2198D03*
X2221Y2298D03*
X2121Y2298D03*
X2021Y2298D03*
X1921Y2298D03*
X1821Y2298D03*
X1721Y2298D03*
X1621Y2298D03*
X1521Y2298D03*
X1421Y2298D03*
X1321Y2298D03*
X1221Y2298D03*
X1121Y2298D03*
X1021Y2298D03*
X921Y2298D03*
X821Y2298D03*
X721Y2298D03*
X621Y2298D03*
X521Y2298D03*
X421Y2298D03*
X321Y2298D03*
G54D12*
X1871Y1673D03*
X1871Y1573D03*
X2321Y1498D03*
X2321Y1398D03*
G54D14*
X1971Y1448D03*
X2071Y1448D03*
X2171Y1448D03*
X1971Y1448D03*
X2071Y1448D03*
X2171Y1448D03*
X1971Y1748D03*
X2071Y1748D03*
X2171Y1748D03*
X1971Y1748D03*
X2071Y1748D03*
X2171Y1748D03*
G54D19*
X146Y1973D03*
X146Y1423D03*
G54D12*
X2046Y1948D03*
X1946Y1948D03*
X2321Y1948D03*
X2221Y1948D03*
X1721Y1748D03*
X1721Y1448D03*
X1621Y1748D03*
X1621Y1448D03*
X1521Y1748D03*
X1521Y1448D03*
X1421Y1748D03*
X1421Y1448D03*
X1671Y1948D03*
X1771Y1948D03*
X1421Y1948D03*
X1521Y1948D03*
G54D18*
X1802Y298D03*
X1664Y298D03*
X1527Y298D03*
X1389Y298D03*
X1251Y298D03*
X1071Y298D03*
X933Y298D03*
X795Y298D03*
X1183Y2548D03*
X1321Y2548D03*
X1458Y2548D03*
X1596Y2548D03*
X621Y298D03*
X483Y298D03*
X345Y298D03*
G54D11*
X970Y617D03*
X1120Y444D03*
X1521Y496D03*
G54D20*
X468Y2538D03*
G54D21*
X2530Y448D03*
G54D22*
X2131Y298D03*
G54D23*
X1721Y1748D03*
G54D22*
X1802Y298D03*
X1071Y298D03*
X1183Y2548D03*
X621Y298D03*
G54D24*
X21Y2523D02*
X20Y1529D01*
G54D25*
D02*
X321Y1974D02*
X321Y1932D01*
G54D24*
D02*
X41Y2542D02*
X21Y2523D01*
D02*
X20Y1529D02*
X197Y1529D01*
D02*
X182Y2543D02*
X41Y2542D01*
D02*
X1046Y2593D02*
X1046Y2483D01*
D02*
X811Y2608D02*
X1027Y2608D01*
D02*
X1046Y2483D02*
X1021Y2388D01*
D02*
X1021Y2388D02*
X1021Y2322D01*
D02*
X1027Y2608D02*
X1046Y2593D01*
D02*
X210Y1691D02*
X211Y1784D01*
G54D25*
D02*
X921Y1236D02*
X921Y1378D01*
D02*
X921Y1378D02*
X1058Y1378D01*
G54D24*
D02*
X806Y2603D02*
X811Y2608D01*
G54D26*
D02*
X971Y1231D02*
X971Y1318D01*
G54D25*
D02*
X647Y1466D02*
X755Y1250D01*
G54D26*
D02*
X1101Y1318D02*
X1121Y1348D01*
D02*
X971Y1318D02*
X1101Y1318D01*
D02*
X1122Y1497D02*
X1160Y1517D01*
D02*
X1121Y1348D02*
X1122Y1497D01*
G54D25*
D02*
X361Y2018D02*
X631Y1778D01*
D02*
X842Y838D02*
X685Y823D01*
D02*
X842Y938D02*
X842Y838D01*
D02*
X658Y1649D02*
X757Y1649D01*
D02*
X631Y1778D02*
X643Y1662D01*
D02*
X247Y2047D02*
X361Y2018D01*
D02*
X297Y2298D02*
X247Y2297D01*
D02*
X247Y2297D02*
X247Y2047D01*
D02*
X322Y2110D02*
X321Y2173D01*
D02*
X822Y723D02*
X871Y761D01*
D02*
X1422Y1810D02*
X1422Y1885D01*
D02*
X685Y723D02*
X822Y723D01*
D02*
X871Y761D02*
X872Y1747D01*
D02*
X872Y1747D02*
X520Y2096D01*
D02*
X520Y2096D02*
X521Y2173D01*
D02*
X842Y1718D02*
X842Y938D01*
D02*
X421Y2173D02*
X421Y2096D01*
D02*
X421Y2096D02*
X842Y1718D01*
D02*
X2422Y1897D02*
X2423Y2422D01*
D02*
X2373Y1877D02*
X2422Y1897D01*
D02*
X2373Y1818D02*
X2373Y1877D01*
D02*
X2422Y1779D02*
X2373Y1818D01*
D02*
X2423Y1586D02*
X2422Y1779D01*
D02*
X2423Y2422D02*
X1422Y2422D01*
D02*
X2307Y1247D02*
X1221Y1247D01*
D02*
X1221Y1247D02*
X1221Y2096D01*
D02*
X1221Y2096D02*
X1221Y2173D01*
D02*
X921Y1997D02*
X921Y1461D01*
D02*
X721Y2173D02*
X721Y2110D01*
D02*
X733Y2090D02*
X921Y1997D01*
D02*
X721Y1711D02*
X721Y1747D01*
D02*
X721Y1747D02*
X332Y2087D01*
G54D26*
D02*
X261Y2398D02*
X821Y2398D01*
D02*
X192Y2449D02*
X261Y2398D01*
G54D25*
D02*
X1320Y1296D02*
X1274Y1298D01*
D02*
X1320Y1573D02*
X1320Y1296D01*
D02*
X1757Y1573D02*
X1320Y1573D01*
G54D26*
D02*
X757Y1573D02*
X46Y1573D01*
D02*
X46Y1573D02*
X41Y2448D01*
D02*
X41Y2448D02*
X192Y2449D01*
D02*
X821Y2398D02*
X821Y2322D01*
G54D25*
D02*
X1422Y2422D02*
X1421Y2322D01*
G54D26*
D02*
X921Y538D02*
X931Y578D01*
D02*
X934Y761D02*
X931Y1168D01*
D02*
X931Y578D02*
X934Y761D01*
D02*
X1032Y1228D02*
X1101Y1238D01*
D02*
X1172Y1372D02*
X1172Y1434D01*
D02*
X1101Y1238D02*
X1172Y1372D01*
G54D25*
D02*
X2097Y1023D02*
X1896Y1023D01*
D02*
X2163Y957D02*
X2097Y1023D01*
G54D27*
D02*
X2427Y872D02*
X1866Y872D01*
G54D25*
D02*
X2471Y2608D02*
X1500Y2609D01*
D02*
X1500Y2609D02*
X1473Y2569D01*
D02*
X2472Y2087D02*
X2471Y2608D01*
G54D26*
D02*
X921Y411D02*
X921Y538D01*
D02*
X1022Y1188D02*
X1032Y1228D01*
D02*
X931Y1168D02*
X1022Y1188D01*
D02*
X2271Y2458D02*
X2357Y2470D01*
D02*
X1271Y2458D02*
X2271Y2458D01*
G54D25*
D02*
X2241Y1296D02*
X2008Y1296D01*
D02*
X2391Y1339D02*
X2241Y1296D01*
D02*
X2490Y1339D02*
X2391Y1339D01*
D02*
X2370Y2333D02*
X2370Y2096D01*
D02*
X1297Y2096D02*
X1236Y2178D01*
D02*
X2370Y2096D02*
X1297Y2096D01*
G54D26*
D02*
X1234Y2468D02*
X1271Y2458D01*
G54D25*
D02*
X2311Y799D02*
X2495Y799D01*
D02*
X2495Y1296D02*
X2490Y1339D01*
D02*
X2495Y799D02*
X2495Y1296D01*
D02*
X1896Y1023D02*
X1733Y1115D01*
D02*
X1386Y1523D02*
X1498Y1523D01*
G54D26*
D02*
X1553Y260D02*
X1621Y129D01*
D02*
X1621Y129D02*
X2570Y129D01*
D02*
X2570Y129D02*
X2571Y338D01*
D02*
X2571Y338D02*
X2471Y388D01*
D02*
X2471Y388D02*
X2472Y723D01*
D02*
X2472Y723D02*
X2258Y723D01*
G54D25*
D02*
X1883Y1523D02*
X2057Y1523D01*
D02*
X2222Y1885D02*
X2222Y1810D01*
D02*
X2383Y1497D02*
X2557Y1497D01*
D02*
X796Y411D02*
X796Y661D01*
D02*
X1498Y1523D02*
X1512Y1507D01*
D02*
X871Y362D02*
X871Y536D01*
D02*
X871Y536D02*
X896Y585D01*
D02*
X896Y585D02*
X896Y710D01*
G54D26*
D02*
X1008Y499D02*
X1008Y747D01*
G54D25*
D02*
X2172Y1537D02*
X2172Y1684D01*
D02*
X351Y1878D02*
X284Y1878D01*
D02*
X271Y1891D02*
X271Y1988D01*
D02*
X271Y1988D02*
X221Y2027D01*
D02*
X221Y2027D02*
X221Y2317D01*
D02*
X221Y2317D02*
X102Y2337D01*
D02*
X102Y2337D02*
X102Y2384D01*
D02*
X115Y2637D02*
X706Y2633D01*
D02*
X706Y2633D02*
X733Y2563D01*
D02*
X211Y2349D02*
X280Y2349D01*
D02*
X151Y2394D02*
X151Y2358D01*
D02*
X280Y2349D02*
X306Y2317D01*
D02*
X151Y2358D02*
X211Y2349D01*
D02*
X2299Y985D02*
X2132Y1082D01*
D02*
X2423Y1171D02*
X2423Y1283D01*
G54D26*
D02*
X2540Y168D02*
X2542Y328D01*
G54D25*
D02*
X732Y591D02*
X732Y665D01*
D02*
X371Y1898D02*
X351Y1878D01*
G54D26*
D02*
X1662Y245D02*
X1671Y168D01*
D02*
X2542Y328D02*
X2421Y388D01*
D02*
X1671Y168D02*
X2540Y168D01*
D02*
X2421Y388D02*
X2421Y678D01*
G54D25*
D02*
X2508Y1849D02*
X2435Y1848D01*
D02*
X1534Y1823D02*
X1883Y1823D01*
G54D26*
D02*
X2320Y261D02*
X2321Y378D01*
D02*
X2321Y378D02*
X2371Y437D01*
D02*
X2371Y437D02*
X2371Y639D01*
D02*
X2371Y639D02*
X2315Y639D01*
D02*
X2421Y678D02*
X1721Y678D01*
D02*
X1721Y678D02*
X1721Y1108D01*
D02*
X2611Y338D02*
X2611Y298D01*
G54D25*
D02*
X2521Y2517D02*
X2520Y2596D01*
G54D26*
D02*
X2588Y1328D02*
X2551Y1328D01*
D02*
X2551Y628D02*
X2611Y458D01*
D02*
X2551Y1328D02*
X2551Y628D01*
D02*
X2611Y458D02*
X2611Y338D01*
D02*
X2611Y298D02*
X2611Y242D01*
G54D25*
D02*
X2521Y2372D02*
X2521Y2517D01*
G54D26*
D02*
X1531Y2488D02*
X1751Y2488D01*
D02*
X2563Y2597D02*
X2551Y2578D01*
D02*
X2551Y2578D02*
X2551Y2517D01*
D02*
X2551Y2517D02*
X2571Y2468D01*
D02*
X2571Y2468D02*
X2570Y1587D01*
D02*
X2611Y1547D02*
X2611Y1427D01*
D02*
X2570Y1587D02*
X2611Y1547D01*
D02*
X2611Y1427D02*
X2591Y1407D01*
D02*
X1401Y2498D02*
X1411Y2488D01*
D02*
X1411Y2488D02*
X1531Y2488D01*
D02*
X1751Y2488D02*
X1793Y2546D01*
D02*
X2202Y347D02*
X2161Y387D01*
D02*
X2161Y387D02*
X2161Y515D01*
D02*
X2281Y209D02*
X2201Y297D01*
D02*
X630Y2527D02*
X639Y2523D01*
D02*
X2201Y297D02*
X2202Y347D01*
D02*
X656Y2505D02*
X676Y2450D01*
D02*
X2490Y221D02*
X2471Y209D01*
D02*
X2471Y209D02*
X2281Y209D01*
G54D25*
D02*
X1512Y486D02*
X1472Y444D01*
D02*
X1472Y444D02*
X1133Y444D01*
G04 End of Copper1*
M02*