G04 MADE WITH FRITZING*
G04 WWW.FRITZING.ORG*
G04 DOUBLE SIDED*
G04 HOLES PLATED*
G04 CONTOUR ON CENTER OF CONTOUR VECTOR*
%ASAXBY*%
%FSLAX23Y23*%
%MOIN*%
%OFA0B0*%
%SFA1.0B1.0*%
%ADD10C,0.078000*%
%ADD11C,0.039370*%
%ADD12C,0.075000*%
%ADD13C,0.083307*%
%ADD14C,0.074000*%
%ADD15C,0.070000*%
%ADD16C,0.138425*%
%ADD17C,0.082000*%
%ADD18C,0.080000*%
%ADD19C,0.129921*%
%ADD20R,0.083307X0.083307*%
%ADD21R,0.082000X0.082000*%
%ADD22R,0.080000X0.080000*%
%ADD23R,0.075000X0.075000*%
%ADD24C,0.008000*%
%ADD25C,0.016000*%
%ADD26C,0.024000*%
%ADD27C,0.012000*%
%LNCOPPER0*%
G90*
G70*
G54D10*
X306Y2543D03*
X206Y2543D03*
G54D11*
X322Y2096D03*
X210Y1529D03*
X210Y1678D03*
X211Y1798D03*
X321Y1918D03*
X321Y1988D03*
X1072Y1378D03*
X796Y2593D03*
X645Y1649D03*
X971Y1217D03*
X761Y1238D03*
X641Y1478D03*
X770Y1649D03*
X671Y822D03*
X671Y723D03*
X671Y621D03*
X1422Y1899D03*
X1422Y1797D03*
X721Y1698D03*
X921Y1448D03*
X2321Y1247D03*
X2521Y1849D03*
X1521Y2346D03*
X770Y1573D03*
X1771Y1573D03*
X1172Y1448D03*
X921Y398D03*
X2472Y2073D03*
X2446Y872D03*
X1847Y872D03*
X1721Y1122D03*
X2173Y947D03*
X1995Y1296D03*
X2298Y799D03*
X2370Y2346D03*
X2370Y2472D03*
X1221Y2472D03*
X2423Y1573D03*
X2423Y1421D03*
X2571Y1497D03*
X2370Y1497D03*
X2222Y1899D03*
X2222Y1797D03*
X2070Y1523D03*
X1870Y1523D03*
X1547Y272D03*
X2245Y723D03*
X1521Y1497D03*
X1373Y1523D03*
X1172Y1523D03*
X796Y674D03*
X796Y398D03*
X2173Y1698D03*
X2173Y1523D03*
X1008Y761D03*
X1008Y485D03*
X921Y1223D03*
X896Y723D03*
X871Y348D03*
X2121Y1088D03*
X2311Y978D03*
X2423Y1296D03*
X2423Y1157D03*
X151Y2408D03*
X721Y2096D03*
X102Y2398D03*
X102Y2637D03*
X271Y1878D03*
X380Y1907D03*
X2520Y2609D03*
X1521Y1823D03*
X1896Y1823D03*
X2422Y1848D03*
X1159Y761D03*
X732Y578D03*
X732Y678D03*
X1341Y408D03*
X1352Y688D03*
X1261Y1298D03*
X1661Y258D03*
X2302Y639D03*
X2320Y248D03*
X2581Y1398D03*
X2501Y228D03*
X2611Y228D03*
X2601Y1328D03*
X2521Y2358D03*
X2571Y2608D03*
X1801Y2557D03*
X1392Y2508D03*
X651Y2517D03*
X2161Y528D03*
X681Y2438D03*
G54D12*
X1846Y798D03*
X2246Y798D03*
X1846Y798D03*
X2246Y798D03*
X1246Y798D03*
X1646Y798D03*
X1246Y798D03*
X1646Y798D03*
G54D13*
X468Y2538D03*
X605Y2538D03*
X743Y2538D03*
X881Y2538D03*
G54D14*
X1096Y1113D03*
X1096Y1013D03*
X1096Y913D03*
X1096Y813D03*
X1096Y713D03*
X1096Y613D03*
X1196Y1163D03*
X1296Y1163D03*
X1396Y1163D03*
X1496Y1163D03*
X1596Y1163D03*
X1541Y1048D03*
X1641Y1048D03*
X1696Y1163D03*
X1796Y1163D03*
X1896Y1163D03*
X1996Y1163D03*
X2096Y1163D03*
X2196Y1163D03*
X2296Y1163D03*
X2296Y563D03*
X2196Y563D03*
X2096Y563D03*
X1996Y563D03*
X1896Y563D03*
X1796Y563D03*
X1696Y563D03*
X1596Y563D03*
X1496Y563D03*
X1396Y563D03*
X1296Y563D03*
X1196Y563D03*
G54D12*
X1846Y948D03*
X2246Y948D03*
X1846Y948D03*
X2246Y948D03*
X1246Y948D03*
X1646Y948D03*
X1246Y948D03*
X1646Y948D03*
G54D15*
X1071Y1443D03*
X1071Y1543D03*
X1071Y1643D03*
X1071Y1743D03*
X1071Y1843D03*
X1071Y1943D03*
X621Y1023D03*
G54D16*
X121Y523D03*
G54D15*
X621Y623D03*
X621Y823D03*
X621Y1223D03*
X621Y523D03*
X621Y723D03*
X621Y923D03*
X621Y1123D03*
G54D16*
X121Y1223D03*
G54D17*
X2529Y448D03*
X2231Y448D03*
G54D18*
X2131Y298D03*
X1993Y298D03*
G54D10*
X321Y2198D03*
X421Y2198D03*
X521Y2198D03*
X621Y2198D03*
X721Y2198D03*
X821Y2198D03*
X921Y2198D03*
X1021Y2198D03*
X1121Y2198D03*
X1221Y2198D03*
X1321Y2198D03*
X1421Y2198D03*
X1521Y2198D03*
X1621Y2198D03*
X1721Y2198D03*
X1821Y2198D03*
X1921Y2198D03*
X2021Y2198D03*
X2121Y2198D03*
X2221Y2198D03*
X321Y2198D03*
X421Y2198D03*
X521Y2198D03*
X621Y2198D03*
X721Y2198D03*
X821Y2198D03*
X921Y2198D03*
X1021Y2198D03*
X1121Y2198D03*
X1221Y2198D03*
X1321Y2198D03*
X1421Y2198D03*
X1521Y2198D03*
X1621Y2198D03*
X1721Y2198D03*
X1821Y2198D03*
X1921Y2198D03*
X2021Y2198D03*
X2121Y2198D03*
X2221Y2198D03*
X2221Y2298D03*
X2121Y2298D03*
X2021Y2298D03*
X1921Y2298D03*
X1821Y2298D03*
X1721Y2298D03*
X1621Y2298D03*
X1521Y2298D03*
X1421Y2298D03*
X1321Y2298D03*
X1221Y2298D03*
X1121Y2298D03*
X1021Y2298D03*
X921Y2298D03*
X821Y2298D03*
X721Y2298D03*
X621Y2298D03*
X521Y2298D03*
X421Y2298D03*
X321Y2298D03*
G54D12*
X1871Y1673D03*
X1871Y1573D03*
X2321Y1498D03*
X2321Y1398D03*
G54D14*
X1971Y1448D03*
X2071Y1448D03*
X2171Y1448D03*
X1971Y1748D03*
X2071Y1748D03*
X2171Y1748D03*
G54D19*
X146Y1973D03*
X146Y1423D03*
G54D12*
X2046Y1948D03*
X1946Y1948D03*
X2321Y1948D03*
X2221Y1948D03*
X1721Y1748D03*
X1721Y1448D03*
X1621Y1748D03*
X1621Y1448D03*
X1521Y1748D03*
X1521Y1448D03*
X1421Y1748D03*
X1421Y1448D03*
X1671Y1948D03*
X1771Y1948D03*
X1421Y1948D03*
X1521Y1948D03*
G54D18*
X1802Y298D03*
X1664Y298D03*
X1527Y298D03*
X1389Y298D03*
X1251Y298D03*
X1071Y298D03*
X933Y298D03*
X795Y298D03*
X1183Y2548D03*
X1321Y2548D03*
X1458Y2548D03*
X1596Y2548D03*
X621Y298D03*
X483Y298D03*
X345Y298D03*
G54D20*
X468Y2538D03*
G54D21*
X2530Y448D03*
G54D22*
X2131Y298D03*
G54D23*
X1721Y1748D03*
G54D22*
X1802Y298D03*
X1071Y298D03*
X1183Y2548D03*
X621Y298D03*
G54D24*
X210Y1542D02*
X210Y1664D01*
D02*
X296Y1953D02*
X366Y1953D01*
D02*
X366Y1953D02*
X401Y1988D01*
D02*
X401Y1988D02*
X321Y2058D01*
D02*
X321Y2058D02*
X322Y2083D01*
D02*
X210Y1868D02*
X296Y1953D01*
D02*
X211Y1811D02*
X210Y1868D01*
D02*
X736Y2603D02*
X783Y2595D01*
D02*
X376Y2603D02*
X736Y2603D01*
D02*
X325Y2559D02*
X376Y2603D01*
G54D25*
D02*
X811Y1263D02*
X1166Y1263D01*
D02*
X773Y1244D02*
X811Y1263D01*
D02*
X1166Y1263D02*
X1189Y1187D01*
D02*
X645Y1635D02*
X642Y1491D01*
D02*
X725Y690D02*
X721Y697D01*
D02*
X721Y697D02*
X721Y1684D01*
D02*
X721Y523D02*
X729Y565D01*
D02*
X646Y523D02*
X721Y523D01*
D02*
X783Y1648D02*
X1046Y1643D01*
D02*
X658Y822D02*
X646Y823D01*
D02*
X646Y723D02*
X658Y723D01*
G54D26*
D02*
X447Y621D02*
X590Y623D01*
D02*
X345Y549D02*
X447Y621D01*
D02*
X345Y329D02*
X345Y549D01*
D02*
X997Y621D02*
X1065Y616D01*
D02*
X690Y621D02*
X997Y621D01*
D02*
X652Y622D02*
X652Y622D01*
G54D25*
D02*
X1096Y496D02*
X1096Y587D01*
D02*
X1247Y424D02*
X1096Y496D01*
D02*
X1250Y323D02*
X1247Y424D01*
D02*
X1721Y1546D02*
X1721Y1471D01*
D02*
X1422Y1546D02*
X1721Y1546D01*
D02*
X1421Y1471D02*
X1422Y1546D01*
D02*
X1905Y1814D02*
X1956Y1763D01*
D02*
X1521Y1771D02*
X1521Y1810D01*
D02*
X1172Y1649D02*
X1097Y1644D01*
D02*
X1297Y1849D02*
X1172Y1649D01*
D02*
X1471Y1849D02*
X1297Y1849D01*
D02*
X1511Y1927D02*
X1471Y1849D01*
D02*
X1422Y1922D02*
X1422Y1925D01*
D02*
X1422Y1912D02*
X1422Y1922D01*
D02*
X1421Y1771D02*
X1422Y1783D01*
D02*
X721Y2399D02*
X721Y2322D01*
D02*
X41Y2338D02*
X131Y2338D01*
D02*
X131Y2338D02*
X211Y2398D01*
D02*
X46Y1747D02*
X41Y2338D01*
D02*
X211Y2398D02*
X721Y2399D01*
D02*
X1046Y1743D02*
X46Y1747D01*
D02*
X322Y1849D02*
X1046Y1843D01*
D02*
X322Y1905D02*
X322Y1849D01*
D02*
X322Y2024D02*
X322Y2001D01*
D02*
X247Y2047D02*
X322Y2024D01*
D02*
X247Y2373D02*
X247Y2047D01*
D02*
X622Y2373D02*
X247Y2373D01*
D02*
X621Y2322D02*
X622Y2373D01*
D02*
X935Y1447D02*
X1046Y1444D01*
D02*
X2211Y1248D02*
X2307Y1247D01*
D02*
X2201Y1188D02*
X2211Y1248D01*
G54D26*
D02*
X2327Y1162D02*
X2404Y1158D01*
G54D27*
D02*
X1021Y1410D02*
X1050Y1429D01*
D02*
X1021Y1343D02*
X1021Y1410D01*
D02*
X1296Y1343D02*
X1021Y1343D01*
D02*
X1296Y1188D02*
X1296Y1343D01*
G54D25*
D02*
X2362Y1289D02*
X2391Y1239D01*
D02*
X2391Y1239D02*
X2480Y1239D01*
D02*
X1422Y2073D02*
X1421Y2173D01*
D02*
X2459Y2073D02*
X1422Y2073D01*
D02*
X2480Y1239D02*
X2472Y2060D01*
D02*
X2120Y1296D02*
X2362Y1289D01*
D02*
X2013Y1182D02*
X2120Y1296D01*
D02*
X2408Y1848D02*
X2097Y1849D01*
D02*
X2097Y1849D02*
X2057Y1927D01*
D02*
X2522Y1077D02*
X2521Y1836D01*
D02*
X2211Y1077D02*
X2522Y1077D01*
D02*
X2117Y1148D02*
X2211Y1077D01*
D02*
X1623Y1948D02*
X1544Y1948D01*
D02*
X1648Y1948D02*
X1623Y1948D01*
D02*
X1945Y2047D02*
X1946Y1971D01*
D02*
X2321Y2047D02*
X1945Y2047D01*
D02*
X2321Y1971D02*
X2321Y2047D01*
D02*
X1392Y2609D02*
X1340Y2564D01*
D02*
X2506Y2609D02*
X1392Y2609D01*
D02*
X2521Y1863D02*
X2521Y2345D01*
D02*
X1521Y2333D02*
X1521Y2322D01*
D02*
X1596Y2399D02*
X1532Y2354D01*
D02*
X1596Y2522D02*
X1596Y2399D01*
D02*
X921Y1296D02*
X770Y1296D01*
D02*
X770Y1296D02*
X770Y1559D01*
D02*
X1855Y1657D02*
X1780Y1582D01*
D02*
X1721Y1872D02*
X1721Y1771D01*
D02*
X1758Y1929D02*
X1721Y1872D01*
D02*
X1185Y1448D02*
X1398Y1448D01*
D02*
X930Y323D02*
X923Y384D01*
D02*
X1247Y1298D02*
X921Y1296D01*
D02*
X470Y197D02*
X480Y273D01*
D02*
X2222Y197D02*
X470Y197D01*
D02*
X2396Y424D02*
X2222Y197D01*
D02*
X2396Y1049D02*
X2396Y424D01*
D02*
X1721Y1049D02*
X2396Y1049D01*
D02*
X1667Y1048D02*
X1721Y1049D01*
D02*
X1721Y1023D02*
X1662Y964D01*
D02*
X1797Y223D02*
X2196Y223D01*
D02*
X2196Y223D02*
X2370Y447D01*
D02*
X2370Y447D02*
X2370Y1023D01*
D02*
X2370Y1023D02*
X1721Y1023D01*
D02*
X1801Y272D02*
X1797Y223D01*
D02*
X1521Y496D02*
X1505Y539D01*
D02*
X1911Y498D02*
X1521Y496D01*
D02*
X1984Y322D02*
X1911Y498D01*
G54D26*
D02*
X2148Y324D02*
X2213Y421D01*
D02*
X1846Y853D02*
X1846Y826D01*
D02*
X2446Y447D02*
X2446Y853D01*
D02*
X2497Y448D02*
X2446Y447D01*
D02*
X1847Y898D02*
X1847Y891D01*
D02*
X1846Y919D02*
X1847Y898D01*
G54D25*
D02*
X1714Y1133D02*
X1710Y1141D01*
D02*
X2223Y948D02*
X2186Y947D01*
D02*
X1987Y1285D02*
X1911Y1183D01*
D02*
X2269Y798D02*
X2284Y799D01*
D02*
X2370Y2458D02*
X2370Y2360D01*
D02*
X1194Y2525D02*
X1215Y2484D01*
D02*
X1320Y2024D02*
X1321Y2173D01*
D02*
X1870Y2024D02*
X1320Y2024D01*
D02*
X1930Y1964D02*
X1870Y2024D01*
D02*
X2021Y2373D02*
X2021Y2322D01*
D02*
X2441Y2528D02*
X2021Y2524D01*
D02*
X2571Y2408D02*
X2441Y2528D01*
D02*
X2571Y1511D02*
X2571Y2408D01*
D02*
X2021Y2524D02*
X2021Y2373D01*
D02*
X2344Y1497D02*
X2357Y1497D01*
D02*
X2423Y1435D02*
X2423Y1559D01*
G54D26*
D02*
X2208Y1784D02*
X2191Y1767D01*
D02*
X2222Y1919D02*
X2222Y1918D01*
G54D25*
D02*
X1972Y1599D02*
X1971Y1469D01*
D02*
X1896Y1774D02*
X1972Y1599D01*
D02*
X1847Y1774D02*
X1896Y1774D01*
D02*
X1771Y1672D02*
X1847Y1774D01*
D02*
X1623Y1672D02*
X1771Y1672D01*
D02*
X1622Y1725D02*
X1623Y1672D01*
D02*
X2071Y1510D02*
X2071Y1469D01*
D02*
X1870Y1550D02*
X1870Y1537D01*
D02*
X2222Y1599D02*
X2222Y1497D01*
D02*
X2222Y1497D02*
X2305Y1414D01*
D02*
X2070Y1649D02*
X2222Y1599D01*
D02*
X2071Y1726D02*
X2070Y1649D01*
D02*
X2245Y737D02*
X2246Y775D01*
D02*
X1543Y278D02*
X1539Y283D01*
D02*
X1521Y1484D02*
X1521Y1471D01*
D02*
X810Y674D02*
X971Y674D01*
D02*
X971Y674D02*
X971Y1204D01*
D02*
X1185Y1523D02*
X1359Y1523D01*
D02*
X796Y323D02*
X796Y384D01*
G54D24*
D02*
X1451Y1108D02*
X1591Y1108D01*
D02*
X1591Y1108D02*
X1594Y1137D01*
D02*
X1451Y948D02*
X1451Y1108D01*
D02*
X1623Y948D02*
X1451Y948D01*
G54D26*
D02*
X2172Y1717D02*
X2172Y1721D01*
D02*
X2172Y1475D02*
X2172Y1504D01*
G54D27*
D02*
X1195Y997D02*
X1229Y964D01*
D02*
X1196Y1137D02*
X1195Y997D01*
D02*
X1247Y872D02*
X1247Y821D01*
D02*
X1246Y925D02*
X1247Y872D01*
D02*
X1195Y799D02*
X1223Y798D01*
G54D24*
D02*
X1161Y838D02*
X1159Y774D01*
D02*
X1161Y1097D02*
X1161Y838D01*
D02*
X1131Y1188D02*
X1161Y1097D01*
D02*
X1061Y1188D02*
X1131Y1188D01*
D02*
X1011Y1138D02*
X1061Y1188D01*
G54D27*
D02*
X697Y485D02*
X834Y485D01*
D02*
X834Y485D02*
X995Y485D01*
D02*
X621Y411D02*
X697Y485D01*
D02*
X1168Y770D02*
X1195Y799D01*
G54D24*
D02*
X1008Y774D02*
X1011Y1138D01*
G54D27*
D02*
X621Y323D02*
X621Y411D01*
G54D25*
D02*
X1622Y1373D02*
X1621Y1425D01*
D02*
X1033Y223D02*
X871Y223D01*
D02*
X871Y223D02*
X871Y335D01*
D02*
X896Y1185D02*
X914Y1212D01*
D02*
X896Y737D02*
X896Y1185D01*
D02*
X1346Y1385D02*
X1384Y1373D01*
D02*
X1384Y1373D02*
X1622Y1373D01*
D02*
X1085Y1378D02*
X1346Y1385D01*
D02*
X1060Y275D02*
X1033Y223D01*
D02*
X1301Y867D02*
X1260Y816D01*
D02*
X1751Y867D02*
X1301Y867D01*
D02*
X1827Y811D02*
X1751Y867D01*
G54D27*
D02*
X1662Y272D02*
X1662Y272D01*
G54D25*
D02*
X2170Y1337D02*
X2171Y1426D01*
D02*
X1961Y1337D02*
X2170Y1337D01*
D02*
X1910Y1279D02*
X1961Y1337D01*
D02*
X1370Y1279D02*
X1910Y1279D01*
D02*
X1310Y1184D02*
X1370Y1279D01*
D02*
X1860Y1088D02*
X1813Y1144D01*
D02*
X1680Y737D02*
X1941Y737D01*
D02*
X1941Y737D02*
X1941Y868D01*
D02*
X1941Y868D02*
X2311Y879D01*
D02*
X2311Y879D02*
X2311Y965D01*
D02*
X2107Y1088D02*
X1860Y1088D01*
D02*
X1657Y778D02*
X1680Y737D01*
G54D27*
D02*
X1610Y688D02*
X1639Y776D01*
D02*
X1365Y688D02*
X1610Y688D01*
G54D24*
D02*
X1161Y658D02*
X1177Y683D01*
D02*
X1322Y428D02*
X1122Y518D01*
D02*
X1122Y518D02*
X1122Y558D01*
D02*
X1177Y683D02*
X1338Y688D01*
D02*
X1122Y558D02*
X1161Y608D01*
D02*
X1161Y608D02*
X1161Y658D01*
D02*
X1332Y418D02*
X1322Y428D01*
G54D27*
D02*
X1379Y321D02*
X1346Y396D01*
G54D25*
D02*
X2423Y1310D02*
X2423Y1408D01*
D02*
X831Y2633D02*
X151Y2637D01*
D02*
X131Y2472D02*
X147Y2420D01*
D02*
X131Y2588D02*
X131Y2472D01*
D02*
X151Y2637D02*
X131Y2588D01*
D02*
X869Y2562D02*
X831Y2633D01*
D02*
X102Y2411D02*
X102Y2624D01*
D02*
X720Y2083D02*
X712Y1878D01*
D02*
X412Y1878D02*
X390Y1898D01*
D02*
X712Y1878D02*
X412Y1878D01*
G54D27*
D02*
X2301Y625D02*
X2298Y588D01*
D02*
X2651Y257D02*
X2651Y188D01*
D02*
X2611Y318D02*
X2651Y257D01*
D02*
X2572Y1388D02*
X2551Y1367D01*
D02*
X2551Y1367D02*
X2551Y629D01*
D02*
X2551Y629D02*
X2611Y458D01*
D02*
X2570Y2649D02*
X2571Y2622D01*
D02*
X1911Y2648D02*
X2570Y2649D01*
D02*
X990Y2648D02*
X1911Y2648D01*
D02*
X990Y2478D02*
X990Y2648D01*
D02*
X481Y2478D02*
X990Y2478D01*
D02*
X2611Y458D02*
X2611Y318D01*
D02*
X2651Y188D02*
X2320Y187D01*
D02*
X2320Y187D02*
X2320Y234D01*
D02*
X474Y2511D02*
X481Y2478D01*
D02*
X2171Y538D02*
X2178Y545D01*
D02*
X2597Y228D02*
X2515Y228D01*
D02*
X2621Y1368D02*
X2607Y1340D01*
D02*
X2621Y1588D02*
X2621Y1368D01*
D02*
X695Y2438D02*
X741Y2438D01*
D02*
X741Y2438D02*
X761Y2418D01*
D02*
X761Y2418D02*
X1331Y2418D01*
D02*
X1331Y2418D02*
X1384Y2496D01*
D02*
X1814Y2557D02*
X2582Y2557D01*
D02*
X2582Y2557D02*
X2601Y2557D01*
D02*
X2601Y2557D02*
X2601Y1648D01*
D02*
X2601Y1648D02*
X2621Y1588D01*
G04 End of Copper0*
M02*