G04 MADE WITH FRITZING*
G04 WWW.FRITZING.ORG*
G04 DOUBLE SIDED*
G04 HOLES PLATED*
G04 CONTOUR ON CENTER OF CONTOUR VECTOR*
%ASAXBY*%
%FSLAX23Y23*%
%MOIN*%
%OFA0B0*%
%SFA1.0B1.0*%
%ADD10C,0.088000*%
%ADD11C,0.049370*%
%ADD12C,0.085000*%
%ADD13C,0.093307*%
%ADD14C,0.084000*%
%ADD15C,0.080000*%
%ADD16C,0.148425*%
%ADD17C,0.092000*%
%ADD18C,0.090000*%
%ADD19C,0.135984*%
%ADD20C,0.139921*%
%ADD21R,0.093307X0.093307*%
%ADD22R,0.092000X0.092000*%
%ADD23R,0.090000X0.090000*%
%ADD24R,0.085000X0.085000*%
%LNMASK0*%
G90*
G70*
G54D10*
X306Y2543D03*
X206Y2543D03*
G54D11*
X322Y2096D03*
X210Y1529D03*
X210Y1678D03*
X211Y1798D03*
X321Y1918D03*
X321Y1988D03*
X1072Y1378D03*
X796Y2593D03*
X2641Y1708D03*
X645Y1649D03*
X971Y1217D03*
X761Y1238D03*
X641Y1478D03*
X770Y1649D03*
X671Y822D03*
X671Y723D03*
X671Y621D03*
X1422Y1899D03*
X1422Y1797D03*
X721Y1698D03*
X921Y1448D03*
X2321Y1247D03*
X2521Y1849D03*
X1521Y2346D03*
X770Y1573D03*
X1771Y1573D03*
X1172Y1448D03*
X921Y398D03*
X2472Y2073D03*
X2446Y872D03*
X1847Y872D03*
X1721Y1122D03*
X2173Y947D03*
X1995Y1296D03*
X2298Y799D03*
X2370Y2346D03*
X2370Y2472D03*
X1221Y2472D03*
X2423Y1573D03*
X2423Y1421D03*
X2571Y1497D03*
X2370Y1497D03*
X2222Y1899D03*
X2222Y1797D03*
X2070Y1523D03*
X1870Y1523D03*
X1547Y272D03*
X2245Y723D03*
X1521Y1497D03*
X1373Y1523D03*
X1172Y1523D03*
X796Y674D03*
X796Y398D03*
X2173Y1698D03*
X2173Y1523D03*
X1008Y761D03*
X1008Y485D03*
X921Y1223D03*
X896Y723D03*
X871Y348D03*
X2121Y1088D03*
X2311Y978D03*
X2423Y1296D03*
X2423Y1157D03*
X151Y2408D03*
X721Y2096D03*
X102Y2398D03*
X102Y2637D03*
X271Y1878D03*
X380Y1907D03*
X2520Y2609D03*
X1521Y1823D03*
X1896Y1823D03*
X2422Y1848D03*
X1159Y761D03*
X732Y578D03*
X732Y678D03*
X1341Y408D03*
X1352Y688D03*
X1261Y1298D03*
X1661Y258D03*
X2302Y639D03*
X2320Y248D03*
X2581Y1398D03*
X2501Y228D03*
X2611Y228D03*
X2601Y1328D03*
X2521Y2358D03*
X2571Y2608D03*
X1801Y2557D03*
X1392Y2508D03*
X651Y2517D03*
X2161Y528D03*
X681Y2438D03*
G54D12*
X1846Y798D03*
X2246Y798D03*
X1846Y798D03*
X2246Y798D03*
X1246Y798D03*
X1646Y798D03*
X1246Y798D03*
X1646Y798D03*
G54D13*
X468Y2538D03*
X605Y2538D03*
X743Y2538D03*
X881Y2538D03*
G54D14*
X1096Y1113D03*
X1096Y1013D03*
X1096Y913D03*
X1096Y813D03*
X1096Y713D03*
X1096Y613D03*
X1196Y1163D03*
X1296Y1163D03*
X1396Y1163D03*
X1496Y1163D03*
X1596Y1163D03*
X1541Y1048D03*
X1641Y1048D03*
X1696Y1163D03*
X1796Y1163D03*
X1896Y1163D03*
X1996Y1163D03*
X2096Y1163D03*
X2196Y1163D03*
X2296Y1163D03*
X2296Y563D03*
X2196Y563D03*
X2096Y563D03*
X1996Y563D03*
X1896Y563D03*
X1796Y563D03*
X1696Y563D03*
X1596Y563D03*
X1496Y563D03*
X1396Y563D03*
X1296Y563D03*
X1196Y563D03*
G54D12*
X1846Y948D03*
X2246Y948D03*
X1846Y948D03*
X2246Y948D03*
X1246Y948D03*
X1646Y948D03*
X1246Y948D03*
X1646Y948D03*
G54D15*
X1071Y1443D03*
X1071Y1543D03*
X1071Y1643D03*
X1071Y1743D03*
X1071Y1843D03*
X1071Y1943D03*
X621Y1023D03*
G54D16*
X121Y523D03*
G54D15*
X621Y623D03*
X621Y823D03*
X621Y1223D03*
X621Y523D03*
X621Y723D03*
X621Y923D03*
X621Y1123D03*
G54D16*
X121Y1223D03*
G54D17*
X2529Y448D03*
X2231Y448D03*
G54D18*
X2131Y298D03*
X1993Y298D03*
G54D19*
X2421Y298D03*
X130Y303D03*
X130Y2236D03*
X121Y523D03*
X121Y1223D03*
G54D10*
X321Y2198D03*
X421Y2198D03*
X521Y2198D03*
X621Y2198D03*
X721Y2198D03*
X821Y2198D03*
X921Y2198D03*
X1021Y2198D03*
X1121Y2198D03*
X1221Y2198D03*
X1321Y2198D03*
X1421Y2198D03*
X1521Y2198D03*
X1621Y2198D03*
X1721Y2198D03*
X1821Y2198D03*
X1921Y2198D03*
X2021Y2198D03*
X2121Y2198D03*
X2221Y2198D03*
X321Y2198D03*
X421Y2198D03*
X521Y2198D03*
X621Y2198D03*
X721Y2198D03*
X821Y2198D03*
X921Y2198D03*
X1021Y2198D03*
X1121Y2198D03*
X1221Y2198D03*
X1321Y2198D03*
X1421Y2198D03*
X1521Y2198D03*
X1621Y2198D03*
X1721Y2198D03*
X1821Y2198D03*
X1921Y2198D03*
X2021Y2198D03*
X2121Y2198D03*
X2221Y2198D03*
X2221Y2298D03*
X2121Y2298D03*
X2021Y2298D03*
X1921Y2298D03*
X1821Y2298D03*
X1721Y2298D03*
X1621Y2298D03*
X1521Y2298D03*
X1421Y2298D03*
X1321Y2298D03*
X1221Y2298D03*
X1121Y2298D03*
X1021Y2298D03*
X921Y2298D03*
X821Y2298D03*
X721Y2298D03*
X621Y2298D03*
X521Y2298D03*
X421Y2298D03*
X321Y2298D03*
G54D12*
X1871Y1673D03*
X1871Y1573D03*
X2321Y1498D03*
X2321Y1398D03*
G54D14*
X1971Y1448D03*
X2071Y1448D03*
X2171Y1448D03*
X1971Y1748D03*
X2071Y1748D03*
X2171Y1748D03*
G54D20*
X146Y1973D03*
X146Y1423D03*
G54D12*
X2046Y1948D03*
X1946Y1948D03*
X2321Y1948D03*
X2221Y1948D03*
X1721Y1748D03*
X1721Y1448D03*
X1621Y1748D03*
X1621Y1448D03*
X1521Y1748D03*
X1521Y1448D03*
X1421Y1748D03*
X1421Y1448D03*
X1671Y1948D03*
X1771Y1948D03*
X1421Y1948D03*
X1521Y1948D03*
G54D18*
X1802Y298D03*
X1664Y298D03*
X1527Y298D03*
X1389Y298D03*
X1251Y298D03*
X1071Y298D03*
X933Y298D03*
X795Y298D03*
X1183Y2548D03*
X1321Y2548D03*
X1458Y2548D03*
X1596Y2548D03*
X621Y298D03*
X483Y298D03*
X345Y298D03*
G54D21*
X468Y2538D03*
G54D22*
X2530Y448D03*
G54D23*
X2131Y298D03*
G54D24*
X1721Y1748D03*
G54D23*
X1802Y298D03*
X1071Y298D03*
X1183Y2548D03*
X621Y298D03*
G04 End of Mask0*
M02*