; NON-PLATED HOLES START AT T1
; THROUGH (PLATED) HOLES START AT T100
M48
INCH
T1C0.125984
T2C0.039370
T100C0.040000
T101C0.032000
T102C0.039370
T103C0.038000
T104C0.043307
T105C0.090551
T106C0.098425
T107C0.035000
T108C0.042000
T109C0.015748
%
T1
X001210Y012228
X024210Y002978
X001299Y022362
X001299Y003027
X001210Y005228
T2
X026410Y017078
T100
X014583Y025478
X010710Y017428
X010710Y002978
X016644Y002978
X010960Y010128
X011960Y005628
X013960Y005628
X015960Y005628
X015266Y002978
X012960Y005628
X014960Y005628
X016960Y005628
X018960Y005628
X015960Y025478
X007954Y002978
X010960Y007128
X017960Y005628
X019960Y005628
X010710Y015428
X015960Y011628
X013960Y011628
X011960Y011628
X012510Y002978
X006210Y002978
X018960Y011628
X016960Y011628
X014960Y011628
X012960Y011628
X013888Y002978
X019960Y011628
X017960Y011628
X021960Y005628
X020960Y005628
X022960Y005628
X004832Y002978
X010710Y018428
X021960Y011628
X010960Y011128
X003454Y002978
X022960Y011628
X020960Y011628
X010960Y008128
X016410Y010478
X010710Y016428
X021310Y002978
X013205Y025478
X015410Y010478
X019932Y002978
X010960Y006128
X010710Y014428
X011827Y025478
X010710Y019428
X018022Y002978
X009332Y002978
X010960Y009128
T101
X020710Y017478
X019710Y017478
X021710Y017478
X020710Y014478
X019710Y014478
X021710Y014478
T102
X006210Y010228
X006210Y007228
X006210Y005228
X006210Y011228
X006210Y008228
X006210Y006228
X006210Y012228
X006210Y009228
T103
X011210Y022978
X010210Y022978
X012210Y022978
X014210Y022978
X016210Y022978
X013210Y022978
X015210Y022978
X017210Y022978
X019210Y022978
X018210Y022978
X020210Y022978
X022210Y022978
X021210Y022978
X006210Y021978
X004210Y021978
X009210Y021978
X007210Y021978
X005210Y021978
X003210Y021978
X008210Y021978
X002060Y025428
X011210Y021978
X003060Y025428
X016210Y021978
X014210Y021978
X012210Y021978
X010210Y021978
X019210Y021978
X017210Y021978
X015210Y021978
X013210Y021978
X018210Y021978
X004210Y022978
X006210Y022978
X003210Y022978
X005210Y022978
X007210Y022978
X009210Y022978
X008210Y022978
X022210Y021978
X020210Y021978
X021210Y021978
T104
X006054Y025378
X004677Y025378
X008810Y025378
X007432Y025378
T105
X001460Y019728
X001460Y014228
T106
X001210Y012228
X001210Y005228
T107
X023210Y013978
X022460Y009478
X016710Y019478
X017710Y019478
X018710Y015728
X014210Y014478
X016210Y014478
X023210Y014978
X015210Y014478
X017210Y014478
X014210Y019478
X015210Y019478
X019460Y019478
X016460Y007978
X012460Y007978
X018460Y007978
X018710Y016728
X014210Y017478
X016210Y017478
X015210Y017478
X017210Y017478
X016460Y009478
X012460Y009478
X018460Y009478
X022210Y019478
X020460Y019478
X023210Y019478
X022460Y007978
T108
X025290Y004478
X022310Y004478
T109
X003213Y019878
X002110Y017976
X016610Y002582
X018465Y008715
X024457Y008715
X025214Y018493
X022218Y017966
X020704Y015234
X026107Y002282
X003804Y019074
X003223Y020962
X024227Y015727
X021725Y015234
X010081Y007607
X025209Y023582
X007316Y006780
X002705Y018779
X009214Y003975
X023110Y009783
X007700Y016485
X025197Y026089
X006812Y024377
X023700Y014970
X022218Y018987
X007316Y005780
X015469Y002723
X022976Y007991
X015206Y023464
X018696Y015234
X025013Y002281
X021725Y009472
X025708Y014970
X019947Y012962
X024227Y014213
X006449Y016485
X011199Y004440
X023201Y002476
X006508Y025173
X018008Y025573
X002103Y015285
X014218Y017966
X007613Y012376
X026010Y013278
X009709Y012173
X018959Y018229
X010081Y004852
X024228Y012961
X015206Y018229
X013725Y015234
X001016Y023978
X023016Y006385
X025811Y013975
X023700Y024715
X009703Y006168
X007963Y006740
X015206Y014970
X017708Y015727
X007206Y020962
X017214Y011217
X023206Y012468
X006712Y008221
X008710Y003480
X014218Y018987
X007963Y003975
X010716Y013777
X011716Y015234
X013515Y006882
X011716Y014476
X024228Y011574
X013915Y025076
X021725Y016978
X007206Y016978
X011588Y007606
X001016Y026372
X007700Y015727
X006712Y007234
X021614Y005282
X008962Y007234
X009214Y014476
X001508Y024076
X002103Y016776
X007963Y025931
X025707Y026083
X012607Y012981
X009214Y012227
X015206Y004962
X024720Y020732
X012210Y024715
X003213Y019180
X023700Y023464
X024217Y018475
X006414Y014775
X021205Y010883
X022449Y007234
T00
M30
