; NON-PLATED HOLES START AT T1
; THROUGH (PLATED) HOLES START AT T100
M48
INCH
T1C0.039370
T2C0.118110
T100C0.038000
T101C0.039370
T102C0.015748
T103C0.040000
%
T1
X000482Y010579
X011982Y010579
X016982Y010579
X004982Y010579
X008982Y010579
X005482Y010579
X009482Y010579
X024482Y010579
X010982Y010579
X012482Y010579
X003982Y010579
X009982Y010579
X022482Y010579
X006982Y010579
X000982Y010579
X015482Y010579
X019482Y010579
X017982Y010579
X022982Y010579
X021482Y010579
X014482Y010579
X008482Y010579
X016482Y010579
X021982Y010579
X018982Y010579
X017482Y010579
X001482Y010579
X012982Y010579
X013482Y010579
X020982Y010579
X023482Y010579
X007982Y010579
X011482Y010579
X002482Y010579
X004482Y010579
X024982Y010579
X006482Y010579
X007482Y010579
X002982Y010579
X018482Y010579
X003482Y010579
X019982Y010579
X013982Y010579
X020482Y010579
X010482Y010579
X023982Y010579
X001982Y010579
X015982Y010579
X005982Y010579
X014982Y010579
T2
X024482Y020579
X018482Y020079
X014973Y009094
X003482Y019079
X007973Y008094
X000973Y009594
X014982Y020079
X000982Y020579
X018473Y009094
X011982Y020079
X003473Y008094
X007982Y019079
X024473Y009594
X021482Y020079
X021473Y009094
X011973Y009094
T100
X006973Y004594
X005482Y016579
X013482Y017579
X012973Y005594
X005982Y015579
X004973Y004594
X005473Y005594
X014473Y006594
X004482Y016579
X004982Y015579
X006982Y015579
X006482Y016579
X006473Y005594
X014482Y017579
X013473Y006594
X013973Y005594
X020982Y017579
X020973Y006594
X004473Y005594
X013982Y016579
X012982Y016579
X005973Y004594
X019973Y006594
X019982Y017579
T101
X019482Y016579
X020482Y016579
X019473Y005594
X020473Y005594
T102
X004476Y014583
X011991Y017581
X001469Y003598
X018470Y015064
X007993Y014583
X007993Y016582
X007984Y005597
X011991Y015064
X011982Y004079
X018461Y006596
X011982Y006596
X007984Y003598
X018461Y004079
X004467Y003598
X001478Y014583
X018470Y017581
T103
X002093Y013079
X003461Y002094
X015482Y014079
X006226Y013079
X021982Y014079
X004848Y013079
X012727Y014079
X011349Y014079
X017849Y014079
X019227Y014079
X007604Y013079
X014105Y014079
X007595Y002094
X014095Y003094
X019217Y003094
X012717Y003094
X003471Y013079
X015473Y003094
X020595Y003094
X008982Y013079
X011339Y003094
X020605Y014079
X004839Y002094
X006217Y002094
X021973Y003094
X002083Y002094
X017839Y003094
X008973Y002094
T00
M30
