G04 MADE WITH FRITZING*
G04 WWW.FRITZING.ORG*
G04 DOUBLE SIDED*
G04 HOLES PLATED*
G04 CONTOUR ON CENTER OF CONTOUR VECTOR*
%ASAXBY*%
%FSLAX23Y23*%
%MOIN*%
%OFA0B0*%
%SFA1.0B1.0*%
%ADD10C,0.078000*%
%ADD11C,0.079370*%
%ADD12C,0.080000*%
%ADD13C,0.039370*%
%ADD14R,0.080000X0.080000*%
%ADD15C,0.024000*%
%LNCOPPER0*%
G90*
G70*
G54D10*
X647Y559D03*
X547Y559D03*
X447Y559D03*
X648Y1658D03*
X548Y1658D03*
X448Y1658D03*
G54D11*
X2047Y559D03*
X1947Y559D03*
X2048Y1658D03*
X1948Y1658D03*
G54D10*
X2097Y659D03*
X1997Y659D03*
X2098Y1758D03*
X1998Y1758D03*
X1397Y559D03*
X1297Y559D03*
X1398Y1658D03*
X1298Y1658D03*
X1447Y659D03*
X1347Y659D03*
X1448Y1758D03*
X1348Y1758D03*
X697Y459D03*
X597Y459D03*
X497Y459D03*
X698Y1558D03*
X598Y1558D03*
X498Y1558D03*
G54D12*
X2197Y309D03*
X2060Y309D03*
X1922Y309D03*
X1784Y309D03*
X2198Y1408D03*
X2061Y1408D03*
X1923Y1408D03*
X1785Y1408D03*
X1547Y309D03*
X1410Y309D03*
X1272Y309D03*
X1134Y309D03*
X1548Y1408D03*
X1411Y1408D03*
X1273Y1408D03*
X1135Y1408D03*
X897Y209D03*
X760Y209D03*
X622Y209D03*
X484Y209D03*
X346Y209D03*
X208Y209D03*
X898Y1308D03*
X760Y1308D03*
X623Y1308D03*
X485Y1308D03*
X347Y1308D03*
X209Y1308D03*
G54D13*
X447Y360D03*
X448Y1458D03*
X147Y360D03*
X148Y1458D03*
X798Y360D03*
X799Y1458D03*
X798Y560D03*
X799Y1658D03*
X1846Y660D03*
X1847Y1758D03*
X1846Y408D03*
X1847Y1506D03*
X1198Y408D03*
X1199Y1506D03*
X1198Y660D03*
X1199Y1758D03*
G54D14*
X2197Y309D03*
X2198Y1408D03*
X1547Y309D03*
X1548Y1408D03*
X897Y209D03*
X898Y1308D03*
G54D15*
X247Y560D02*
X428Y559D01*
D02*
X248Y1658D02*
X429Y1658D01*
D02*
X211Y229D02*
X247Y560D01*
D02*
X211Y1328D02*
X248Y1658D01*
D02*
X347Y460D02*
X478Y459D01*
D02*
X348Y1558D02*
X479Y1558D01*
D02*
X346Y229D02*
X347Y460D01*
D02*
X347Y1328D02*
X348Y1558D01*
D02*
X147Y368D02*
X147Y660D01*
D02*
X148Y1466D02*
X148Y1758D01*
D02*
X147Y660D02*
X547Y660D01*
D02*
X148Y1758D02*
X548Y1758D01*
D02*
X547Y660D02*
X547Y578D01*
D02*
X548Y1758D02*
X548Y1677D01*
D02*
X479Y229D02*
X449Y352D01*
D02*
X480Y1327D02*
X450Y1451D01*
D02*
X599Y308D02*
X598Y440D01*
D02*
X599Y1406D02*
X598Y1539D01*
D02*
X617Y229D02*
X599Y308D01*
D02*
X618Y1327D02*
X599Y1406D01*
D02*
X898Y460D02*
X716Y459D01*
D02*
X899Y1558D02*
X717Y1558D01*
D02*
X897Y229D02*
X898Y460D01*
D02*
X898Y1328D02*
X899Y1558D01*
D02*
X791Y560D02*
X666Y559D01*
D02*
X791Y1658D02*
X667Y1658D01*
D02*
X798Y308D02*
X798Y352D01*
D02*
X799Y1406D02*
X799Y1450D01*
D02*
X767Y228D02*
X798Y308D01*
D02*
X768Y1327D02*
X799Y1406D01*
D02*
X1798Y508D02*
X1785Y329D01*
D02*
X1799Y1606D02*
X1786Y1428D01*
D02*
X1929Y553D02*
X1798Y508D01*
D02*
X1930Y1652D02*
X1799Y1606D01*
D02*
X1851Y402D02*
X1910Y325D01*
D02*
X1852Y1500D02*
X1911Y1424D01*
D02*
X1978Y659D02*
X1854Y660D01*
D02*
X1979Y1758D02*
X1855Y1758D01*
D02*
X2046Y408D02*
X2057Y329D01*
D02*
X2047Y1506D02*
X2058Y1428D01*
D02*
X2047Y540D02*
X2046Y408D01*
D02*
X2048Y1638D02*
X2047Y1506D01*
D02*
X2198Y551D02*
X2197Y329D01*
D02*
X2198Y608D02*
X2198Y551D01*
D02*
X2199Y1706D02*
X2198Y1428D01*
D02*
X2114Y651D02*
X2198Y608D01*
D02*
X2115Y1749D02*
X2199Y1706D01*
D02*
X1546Y608D02*
X1547Y329D01*
D02*
X1547Y1706D02*
X1548Y1428D01*
D02*
X1464Y651D02*
X1546Y608D01*
D02*
X1465Y1749D02*
X1547Y1706D01*
D02*
X1398Y408D02*
X1407Y329D01*
D02*
X1399Y1506D02*
X1408Y1428D01*
D02*
X1397Y540D02*
X1398Y408D01*
D02*
X1398Y1639D02*
X1399Y1506D01*
D02*
X1146Y508D02*
X1135Y329D01*
D02*
X1147Y1606D02*
X1136Y1428D01*
D02*
X1279Y553D02*
X1146Y508D01*
D02*
X1280Y1652D02*
X1147Y1606D01*
D02*
X1203Y402D02*
X1260Y325D01*
D02*
X1204Y1500D02*
X1261Y1424D01*
D02*
X1328Y659D02*
X1206Y660D01*
D02*
X1329Y1758D02*
X1207Y1758D01*
G04 End of Copper0*
M02*